<?xml version="1.0" encoding="UTF-8" standalone="no"?>
<!-- Created with Inkscape (http://www.inkscape.org/) -->

<svg
   width="221.50722mm"
   height="85.016335mm"
   viewBox="0 0 221.50722 85.016335"
   version="1.1"
   id="svg1"
   xmlns="http://www.w3.org/2000/svg"
   xmlns:svg="http://www.w3.org/2000/svg">
  <defs
     id="defs1" />
  <g
     id="layer21"
     style="display:inline"
     transform="translate(3.5698069,-146.61062)">
    <path
       style="display:inline;fill:#79cf40;fill-opacity:1;stroke:none;stroke-width:0;stroke-linecap:round;stroke-linejoin:round;stroke-dasharray:none"
       d="m 11.22542,231.62695 h 206.71199 c 0,0 -0.33183,-13.63417 -7.6886,-14.79576 -7.35677,-1.1616 -9.67996,4.45278 -9.67996,4.45278 0,0 3.48478,-5.03358 0.1936,-10.45436 -3.29119,-5.42078 -11.22876,-5.80798 -11.22876,-5.80798 0,0 18.39193,-0.1936 18.00473,-4.64638 -0.3872,-4.45279 -15.29434,-0.1936 -15.29434,-0.1936 0,0 16.45594,-5.80798 13.35835,-9.09917 -3.09759,-3.29119 -13.55195,4.83998 -13.55195,4.83998 0,0 12.19675,-10.84155 8.71197,-12.39035 -3.48479,-1.54879 -9.67997,8.13117 -9.67997,8.13117 0,0 7.55038,-10.26076 3.48479,-12.00316 -4.06558,-1.74239 -7.16317,8.90557 -7.16317,8.90557 0,0 2.32319,-9.29276 -1.3552,-10.26076 -3.67838,-0.968 -2.90399,8.13117 -2.90399,8.13117 0,0 0.1936,-9.29276 -7.55037,-12.58395 -7.74397,-3.29119 -13.93915,0.7744 -13.93915,0.7744 0,0 3.09759,-4.64639 0.7744,-10.64796 -2.32319,-6.00158 -11.22876,-3.09759 -11.22876,-3.09759 0,0 5.80798,-3.09759 2.71039,-6.38878 -3.09759,-3.29119 -6.00158,2.71039 -6.00158,2.71039 0,0 4.45279,-8.51837 0.5808,-8.71197 -3.87198,-0.1936 -4.25918,6.00158 -4.25918,6.00158 0,0 -0.7744,-9.09917 -4.25918,-7.74397 -3.48479,1.3552 -0.3872,6.77597 -0.3872,6.77597 0,0 -3.29119,-6.77597 -6.00158,-5.03358 -2.71039,1.7424 2.12959,5.22718 2.12959,5.22718 0,0 -4.83998,-3.09759 -10.45436,-0.5808 -5.61438,2.51679 -5.61438,7.35678 -5.61438,7.35678 0,0 -2.32319,-7.16318 -5.42078,-6.19518 -3.09759,0.968 0.968,6.00158 0.968,6.00158 0,0 -7.16318,-6.58238 -8.32477,-3.09759 -1.1616,3.48479 6.38877,5.42078 6.38877,5.42078 0,0 -12.58395,-1.3552 -10.84155,1.74239 1.74239,3.09759 10.64796,1.5488 10.64796,1.5488 0,0 -10.06717,1.16159 -12.19676,5.22718 -2.12959,4.06558 -2.710387,8.13117 -2.710387,8.13117 0,0 1.161595,-6.77598 -2.323193,-9.67997 -3.484787,-2.90399 -9.679963,0.968 -9.679963,0.968 0,0 9.292764,-5.22718 8.324767,-8.13117 -0.967996,-2.90399 -8.518366,5.03358 -8.518366,5.03358 0,0 8.518366,-9.67996 5.614379,-11.61595 -2.90399,-1.936 -7.356774,8.90556 -7.356774,8.90556 0,0 5.22718,-12.97115 1.355196,-12.19675 -3.871986,0.77439 -3.291189,10.84156 -3.291189,10.84156 0,0 -3.291186,-14.51995 -5.807977,-11.03516 -2.516791,3.48479 2.129591,10.06716 2.129591,10.06716 0,0 -6.001578,-9.48636 -7.937568,-7.35677 -1.935994,2.12959 4.452781,7.16317 4.452781,7.16317 0,0 -7.74397,-4.64638 -12.390353,-1.74239 -4.646382,2.90399 -3.678385,8.13117 -3.678385,8.13117 0,0 -3.291189,-6.77598 -5.80798,-5.22718 -2.516788,1.54879 0.774398,5.42078 0.774398,5.42078 0,0 -8.324768,-3.87199 -8.324768,-1.3552 0,2.51679 6.195177,4.25919 6.195177,4.25919 0,0 -8.324771,-1.3552 -7.356774,1.54879 0.967997,2.90399 5.80798,1.74239 5.80798,1.74239 0,0 -7.743971,1.1616 -8.711967,6.38878 -0.967997,5.22718 1.548794,9.29276 1.548794,9.29276 0,0 -3.678389,-4.83998 -6.195177,-4.06558 -2.51679,0.7744 3.097589,5.03358 3.097589,5.03358 0,0 -7.163173,-3.48479 -6.969575,-0.5808 0.193598,2.90399 5.807977,3.29119 5.807977,3.29119 0,0 -8.324768,-1.54879 -7.74397,1.93599 0.580797,3.48479 6.775973,0.5808 6.775973,0.5808 0,0 -7.550369,2.90399 -5.807977,5.42078 1.742393,2.51679 6.582376,-1.54879 6.582376,-1.54879 0,0 -2.323193,1.93599 -2.516791,6.19517 -0.193598,4.25919 1.742392,6.19518 1.742392,6.19518 0,0 -3.678385,-5.61438 -8.518366,-5.80798 -4.839982,-0.1936 -6.969574,5.03358 -6.969574,5.03358 0,0 0.774397,-15.10074 -3.678387,-15.29434 -4.452783,-0.1936 0.387199,16.26234 0.387199,16.26234 0,0 -4.839982,-16.64954 -9.292765,-14.71354 -4.4527834,1.93599 6.388776,15.29434 6.388776,15.29434 0,0 -11.8095558,-14.32635 -13.7455484,-10.64796 -1.93599278,3.67838 10.6479604,11.80955 10.6479604,11.80955 0,0 -16.4559388,-8.90557 -15.1007437,-4.45278 1.35519488,4.45278 12.3903537,6.96957 12.3903537,6.96957 0,0 -15.2943428,-2.71039 -13.9391478,1.5488 1.3551948,4.25918 13.5519488,2.12959 13.5519488,2.12959 0,0 -13.1647504,1.54879 -12.3903533,4.45278 0.7743971,2.90399 12.1967543,-0.3872 12.1967543,-0.3872 0,0 -1.7423934,0.7744 -1.5487943,2.90399 0.1935993,2.1296 2.9006513,3.37341 2.9006513,3.37341 z"
       id="path115" />
  </g>
</svg>
