<?xml version="1.0" encoding="UTF-8" standalone="no"?>
<!DOCTYPE svg PUBLIC "-//W3C//DTD SVG 1.1//EN" "http://www.w3.org/Graphics/SVG/1.1/DTD/svg11.dtd">
<svg version="1.1" xmlns="http://www.w3.org/2000/svg" xmlns:xlink="http://www.w3.org/1999/xlink" preserveAspectRatio="xMidYMid meet" viewBox="0 0 640 640" width="640" height="640"><defs><path d="" id="c7KmbFwhNf"></path><path d="M434.65 431.49L541.4 320L563.14 202.19L492.97 93.47L339.77 38.75L38.72 38.75L434.65 431.49Z" id="a2HAYUiUYj"></path><path d="M57.59 39.1L554.74 488.81L601.19 505.62L601.19 596.55L38.81 39.1L57.59 39.1Z" id="aahArhyON"></path><path d="M435.8 433.54L325.5 541.51L207.94 564.55L98.45 495.58L42.04 343L38.72 41.97L435.8 433.54Z" id="i7t26HhS3"></path><path d="M38.89 57.53L493.17 550.51L510.4 596.8L601.32 595.97L38.72 38.75L38.89 57.53Z" id="asiDo4lr"></path><path d="M94.05 481.22L113.17 474.06L127.57 471.95L141.97 469.83L159.2 470.14L173.58 469.21L187.96 468.28L208.11 466.27L225.36 465.39L241.26 465.39L258.49 460.05L274.31 458.55L290.15 456.46L307.43 453.81L321.82 452.28L339.07 452L357.74 451.74L376.44 450.29L390.84 448.18L403.82 445.45L418.22 443.33" id="bljG5SkMp"></path><path d="M59.37 389.7L78.45 382.09L99.23 382.09L120.01 385.99L140.79 387.29L165.46 387.29L187.54 382.09L208.32 376.9L227.8 371.7L248.58 369.1L270.66 366.51L294.03 365.21L326.5 357.61" id="hxtsEtJsw"></path><path d="M41.56 294.94L66.34 293.64L87.12 297.53L107.9 300.13L131.27 296.23L152.05 294.94L175.43 296.23L197.51 294.94L219.58 291.04L241.66 289.74L262.44 288.44" id="e4eRAT3rS"></path><path d="M41.56 204.32L85.14 203.02L105.92 203.02L128 204.32L148.78 208.21L172.16 210.81L192.94 212.11" id="e3AgJ6rUe7"></path><path d="M40.06 135.65L63.64 134.35L84.42 135.65L124.19 138.25" id="awkrH52OA"></path><path d="M438.96 404.47L446.92 381.98L453.54 360.82L461.5 338.33L464.15 313.2L465.48 292.03L469.45 269.55L477.41 249.71L482.71 228.54L485.36 204.73L488.01 182.25L493.32 159.76L509.29 132.59L514.6 128.75" id="bkJxlRiLN"></path><path d="M374.53 341.25L377.92 303.17L384.42 283.69L393.51 264.21L398.7 242.13L402.6 218.75L403.9 196.68L407.79 174.6L412.99 151.22L419.48 130.44L427.68 101.96L435.8 73.88" id="b4oNmag"></path><path d="M300.93 272.61L305.3 239.53L307.79 220.05L311.69 199.27L318.18 178.49L318.18 156.42L318.18 134.34L319.48 112.26L323.38 88.88L328.57 65.51L328.57 38.75" id="ckXFW7sC2"></path><path d="M219.48 194.08L222.08 172L225.97 151.22L228.57 129.14L229.87 107.06L227.27 84.99L227.27 64.21L227.27 38.75" id="j3DoXUyzcJ"></path><path d="M145.45 125.25L142.86 101.87L141.56 81.09L141.56 38.75" id="b2Dgu5t3AT"></path></defs><g><g><g><g><use xlink:href="#c7KmbFwhNf" opacity="1" fill-opacity="0" stroke="#000000" stroke-width="1" stroke-opacity="1"></use></g></g><g><use xlink:href="#a2HAYUiUYj" opacity="1" fill="#0d8618" fill-opacity="1"></use><g><use xlink:href="#a2HAYUiUYj" opacity="1" fill-opacity="0" stroke="#000000" stroke-width="0" stroke-opacity="1"></use></g></g><g><use xlink:href="#aahArhyON" opacity="1" fill="#0b6412" fill-opacity="1"></use><g><use xlink:href="#aahArhyON" opacity="1" fill-opacity="0" stroke="#000000" stroke-width="0" stroke-opacity="1"></use></g></g><g><use xlink:href="#i7t26HhS3" opacity="1" fill="#0b6412" fill-opacity="1"></use><g><use xlink:href="#i7t26HhS3" opacity="1" fill-opacity="0" stroke="#000000" stroke-width="0" stroke-opacity="1"></use></g></g><g><use xlink:href="#asiDo4lr" opacity="1" fill="#0d8618" fill-opacity="1"></use><g><use xlink:href="#asiDo4lr" opacity="1" fill-opacity="0" stroke="#000000" stroke-width="0" stroke-opacity="1"></use></g></g><g><use xlink:href="#bljG5SkMp" opacity="1" fill="#0d8618" fill-opacity="1"></use><g><use xlink:href="#bljG5SkMp" opacity="1" fill-opacity="0" stroke="#0d8618" stroke-width="17" stroke-opacity="1"></use></g></g><g><g><use xlink:href="#hxtsEtJsw" opacity="1" fill-opacity="0" stroke="#0d8618" stroke-width="17" stroke-opacity="1"></use></g></g><g><g><use xlink:href="#e4eRAT3rS" opacity="1" fill-opacity="0" stroke="#0d8618" stroke-width="17" stroke-opacity="1"></use></g></g><g><g><use xlink:href="#e3AgJ6rUe7" opacity="1" fill-opacity="0" stroke="#0d8618" stroke-width="17" stroke-opacity="1"></use></g></g><g><g><use xlink:href="#awkrH52OA" opacity="1" fill-opacity="0" stroke="#0d8618" stroke-width="17" stroke-opacity="1"></use></g></g><g><use xlink:href="#bkJxlRiLN" opacity="1" fill="#0d8618" fill-opacity="1"></use><g><use xlink:href="#bkJxlRiLN" opacity="1" fill-opacity="0" stroke="#0b6412" stroke-width="17" stroke-opacity="1"></use></g></g><g><g><use xlink:href="#b4oNmag" opacity="1" fill-opacity="0" stroke="#0b6412" stroke-width="17" stroke-opacity="1"></use></g></g><g><g><use xlink:href="#ckXFW7sC2" opacity="1" fill-opacity="0" stroke="#0b6412" stroke-width="17" stroke-opacity="1"></use></g></g><g><g><use xlink:href="#j3DoXUyzcJ" opacity="1" fill-opacity="0" stroke="#0b6412" stroke-width="17" stroke-opacity="1"></use></g></g><g><g><use xlink:href="#b2Dgu5t3AT" opacity="1" fill-opacity="0" stroke="#0b6412" stroke-width="17" stroke-opacity="1"></use></g></g></g></g></svg>