<svg xmlns="http://www.w3.org/2000/svg" viewBox="0 0 63.1 62.08"><defs><style>.cls-1{fill:#fff;}.cls-2{fill:#009245;}</style></defs><title>tick</title><g id="Vrstva_2" data-name="Vrstva 2"><g id="tick"><path class="cls-1" d="M7.38,35.55l21,19.15A204.73,204.73,0,0,1,54.87,8.49l.85-1.11"/><path class="cls-2" d="M28.4,62.08a7.37,7.37,0,0,1-5-1.92L2.41,41a7.38,7.38,0,0,1,9.94-10.92L25.79,42.34A211.32,211.32,0,0,1,49,4l.89-1.16a7.38,7.38,0,1,1,11.66,9.06L60.73,13A198.25,198.25,0,0,0,35.22,57.52,7.37,7.37,0,0,1,30,61.9,7.29,7.29,0,0,1,28.4,62.08Z"/></g></g></svg>