<?xml version="1.0" encoding="UTF-8" standalone="no"?>
<svg
   viewBox="0 0 485 362.99"
   version="1.1"
   id="svg9"
   sodipodi:docname="add-pictures.svg"
   inkscape:version="1.3.2 (091e20e, 2023-11-25, custom)"
   xmlns:inkscape="http://www.inkscape.org/namespaces/inkscape"
   xmlns:sodipodi="http://sodipodi.sourceforge.net/DTD/sodipodi-0.dtd"
   xmlns="http://www.w3.org/2000/svg"
   xmlns:svg="http://www.w3.org/2000/svg">
  <sodipodi:namedview
     id="namedview9"
     pagecolor="#ffffff"
     bordercolor="#000000"
     borderopacity="0.25"
     inkscape:showpageshadow="2"
     inkscape:pageopacity="0.0"
     inkscape:pagecheckerboard="0"
     inkscape:deskcolor="#d1d1d1"
     inkscape:zoom="2.0701031"
     inkscape:cx="242.5"
     inkscape:cy="180.90886"
     inkscape:window-width="1920"
     inkscape:window-height="1001"
     inkscape:window-x="-9"
     inkscape:window-y="-9"
     inkscape:window-maximized="1"
     inkscape:current-layer="Vrstva_2" />
  <defs
     id="defs7">
    <style
       id="style1">.cls-1{fill:url(#Nepojmenovaný_přechod_14);}.cls-2{fill:#479911;}.cls-3{fill:#366e11;}</style>
    <linearGradient
       id="Nepojmenovaný_přechod_14"
       x1="242.5"
       y1="87.32"
       x2="242.5"
       y2="381.29"
       gradientUnits="userSpaceOnUse">
      <stop
         offset="0"
         stop-color="#fff"
         id="stop1"
         style="stop-color:#79cf40;stop-opacity:0;" />
      <stop
         offset="1"
         stop-color="#79cf40"
         id="stop7" />
    </linearGradient>
  </defs>
  <title
     id="title7">add-pictures</title>
  <g
     id="Vrstva_2"
     data-name="Vrstva 2">
    <g
       id="Vrstva_1-2"
       data-name="Vrstva 1">
      <rect
         class="cls-1"
         y="89.99"
         width="485"
         height="273"
         rx="57.9"
         id="rect7"
         style="opacity:1" />
    </g>
    <g
       id="Vrstva_2-2"
       data-name="Vrstva 2">
      <path
         class="cls-2"
         d="M277.91,241.87S327,144.6,277.2,88.51c-37.3-42-87-50.68-145.06-66.25C86.78,10.11,60,0,60,0s1.43,67.56,72,136.86c21.81,21.42,64.41,35.21,95.44,56.1S277.91,241.87,277.91,241.87Z"
         id="path7" />
      <path
         class="cls-2"
         d="M291.7,349.76s.09-58.31-31.26-101.81c-44.58-61.86-94.88-52.36-148.52-114.58C50.78,62.44,60,0,60,0S52.86,27.84,32.79,104.11C17.57,162,24.55,205.75,71.6,253.44,145,327.86,249,278.8,249,278.8a44.48,44.48,0,0,1,9.75,27.84c-.23,24-11.29,31.74-11.3,31.78Z"
         id="path8" />
    </g>
    <g
       id="Vrstva_3"
       data-name="Vrstva 3">
      <path
         class="cls-3"
         d="M441.94,76.73H379.26V14.05A11.1,11.1,0,0,0,368.2,3H325.8a11.1,11.1,0,0,0-11.06,11.06V76.73H252.06A11.1,11.1,0,0,0,241,87.79v42.4a11.09,11.09,0,0,0,11.06,11.06h62.68v62.68A11.09,11.09,0,0,0,325.8,215h42.4a11.09,11.09,0,0,0,11.06-11.06V141.25h62.68A11.09,11.09,0,0,0,453,130.19V87.79A11.1,11.1,0,0,0,441.94,76.73Z"
         id="path9" />
    </g>
  </g>
</svg>
