<svg xmlns="http://www.w3.org/2000/svg" xmlns:xlink="http://www.w3.org/1999/xlink" viewBox="0 0 485 362.99"><defs><style>.cls-1{fill:url(#Nepojmenovaný_přechod_14);}.cls-2{fill:#479911;}.cls-3{fill:#366e11;}</style><linearGradient id="Nepojmenovaný_přechod_14" x1="242.5" y1="87.32" x2="242.5" y2="381.29" gradientUnits="userSpaceOnUse"><stop offset="0" stop-color="#fff"/><stop offset="0.07" stop-color="#f1faeb"/><stop offset="0.32" stop-color="#c7ebaf"/><stop offset="0.54" stop-color="#a5df7f"/><stop offset="0.73" stop-color="#8dd65d"/><stop offset="0.89" stop-color="#7ed148"/><stop offset="1" stop-color="#79cf40"/></linearGradient></defs><title>add-pictures</title><g id="Vrstva_2" data-name="Vrstva 2"><g id="Vrstva_1-2" data-name="Vrstva 1"><rect class="cls-1" y="89.99" width="485" height="273" rx="57.9"/></g><g id="Vrstva_2-2" data-name="Vrstva 2"><path class="cls-2" d="M277.91,241.87S327,144.6,277.2,88.51c-37.3-42-87-50.68-145.06-66.25C86.78,10.11,60,0,60,0s1.43,67.56,72,136.86c21.81,21.42,64.41,35.21,95.44,56.1S277.91,241.87,277.91,241.87Z"/><path class="cls-2" d="M291.7,349.76s.09-58.31-31.26-101.81c-44.58-61.86-94.88-52.36-148.52-114.58C50.78,62.44,60,0,60,0S52.86,27.84,32.79,104.11C17.57,162,24.55,205.75,71.6,253.44,145,327.86,249,278.8,249,278.8a44.48,44.48,0,0,1,9.75,27.84c-.23,24-11.29,31.74-11.3,31.78Z"/></g><g id="Vrstva_3" data-name="Vrstva 3"><path class="cls-3" d="M441.94,76.73H379.26V14.05A11.1,11.1,0,0,0,368.2,3H325.8a11.1,11.1,0,0,0-11.06,11.06V76.73H252.06A11.1,11.1,0,0,0,241,87.79v42.4a11.09,11.09,0,0,0,11.06,11.06h62.68v62.68A11.09,11.09,0,0,0,325.8,215h42.4a11.09,11.09,0,0,0,11.06-11.06V141.25h62.68A11.09,11.09,0,0,0,453,130.19V87.79A11.1,11.1,0,0,0,441.94,76.73Z"/></g></g></svg>