<?xml version="1.0" encoding="UTF-8" standalone="no"?>
<!-- Created with Inkscape (http://www.inkscape.org/) -->

<svg
   width="256"
   height="256"
   viewBox="0 0 67.733333 67.733333"
   version="1.1"
   id="svg5"
   inkscape:version="1.2 (dc2aedaf03, 2022-05-15)"
   sodipodi:docname="cookie.svg"
   xmlns:inkscape="http://www.inkscape.org/namespaces/inkscape"
   xmlns:sodipodi="http://sodipodi.sourceforge.net/DTD/sodipodi-0.dtd"
   xmlns="http://www.w3.org/2000/svg"
   xmlns:svg="http://www.w3.org/2000/svg">
  <sodipodi:namedview
     id="namedview7"
     pagecolor="#ffffff"
     bordercolor="#000000"
     borderopacity="0.25"
     inkscape:showpageshadow="2"
     inkscape:pageopacity="0.0"
     inkscape:pagecheckerboard="0"
     inkscape:deskcolor="#d1d1d1"
     inkscape:document-units="mm"
     showgrid="false"
     inkscape:zoom="3.4202649"
     inkscape:cx="127.76788"
     inkscape:cy="130.83782"
     inkscape:window-width="1920"
     inkscape:window-height="1001"
     inkscape:window-x="-9"
     inkscape:window-y="-9"
     inkscape:window-maximized="1"
     inkscape:current-layer="layer1" />
  <defs
     id="defs2" />
  <g
     inkscape:label="Vrstva 1"
     inkscape:groupmode="layer"
     id="layer1"
     transform="translate(1.9155405,-1.0945946)">
    <path
       id="circle2454"
       style="fill:none;fill-opacity:0.533333;stroke:#ffffff;stroke-width:1.05833333;stroke-dasharray:none;stroke-opacity:1"
       d="m 61.86619,37.038422 c 0,0 2.370625,4.689398 -1.420158,13.684866 -0.740171,1.756414 -2.462149,2.462275 -3.911745,3.996131 -1.956417,2.070136 -3.858259,4.851683 -5.799694,6.494455 -4.080602,3.452857 -7.651806,3.671102 -13.141201,4.630316 -1.735618,0.303281 -3.521139,-0.05459 -5.343592,-0.05459 -3.429859,0 -6.775383,-1.581635 -9.910652,-2.454809 C 18.087427,62.150684 13.94808,61.5664 11.057972,58.367331 9.1138513,56.215378 8.2207018,53.193459 5.4215052,50.41917 1.7570968,46.787368 1.1609879,41.260704 1.1609879,35.73278 c 0,-4.539902 2.0132529,-8.463621 3.7752507,-12.344631 1.733705,-3.818693 3.1912831,-7.608366 6.2457064,-10.404009 4.199359,-3.8435759 9.415405,-6.8783743 15.304725,-7.5920947 3.721292,-0.4509794 6.279127,0.4129153 6.279127,0.4129153 0,0 -4.741852,5.1067174 -1.908936,10.6374884 1.763246,3.442428 5.752941,4.4257 5.752941,4.4257 0,0 -2.815218,5.252153 0.487137,9.075657 4.659196,5.394467 10.24735,4.366181 10.24735,4.366181 0,0 2.686918,4.830036 7.890494,4.529622 6.051713,-0.349378 6.631407,-1.801187 6.631407,-1.801187 z"
       sodipodi:nodetypes="csssssssssssscscscsc" />
    <path
       style="fill:none;fill-opacity:0.533333;stroke:#ffffff;stroke-width:1.05833333;stroke-dasharray:none;stroke-opacity:1"
       d="m 25.310697,30.110251 c -1.24952,1.32873 -2.05444,2.852458 -1.060058,4.975533 0.988416,2.110339 2.472497,3.966982 4.285037,3.925413 3.134059,-0.07188 5.93112,-2.960519 4.514972,-4.90197 -1.353727,-1.855876 -2.68574,-2.619596 -4.05224,-3.158885 -1.552369,-0.612641 -2.547167,-2.052938 -3.687711,-0.840091 z"
       id="path2659"
       sodipodi:nodetypes="ssssss" />
    <path
       style="fill:none;fill-opacity:0.533333;stroke:#ffffff;stroke-width:1.05833;stroke-dasharray:none;stroke-opacity:1"
       d="m 41.695954,9.4926917 c -1.24952,1.3287303 -2.291916,4.7258493 -0.51276,6.2525603 1.639461,1.406837 2.38128,0.774414 4.19382,0.732845 3.134059,-0.07188 4.927742,-2.139573 3.511594,-4.081024 C 47.534881,10.541197 48.665706,8.8653147 47.299206,8.3260262 45.746837,7.713385 42.836498,8.2798462 41.695954,9.4926917 Z"
       id="path2659-5"
       sodipodi:nodetypes="ssssss" />
    <path
       style="fill:none;fill-opacity:0.533333;stroke:#ffffff;stroke-width:1.05833333;stroke-dasharray:none;stroke-opacity:1"
       d="m 18.395878,16.61762 c -2.460883,-0.0993 -1.692332,1.002788 -1.786318,2.727526 -0.09013,1.654039 -1.007031,3.142107 0.585563,3.521209 1.802607,0.429093 4.185649,-1.490282 4.467398,-3.343454 0.334974,-2.203256 -1.066824,-2.816521 -3.266643,-2.905281 z"
       id="path2661"
       sodipodi:nodetypes="sssss" />
    <path
       style="fill:none;fill-opacity:0.533333;stroke:#ffffff;stroke-width:1.05833333;stroke-dasharray:none;stroke-opacity:1"
       d="m 29.418707,54.587733 c -2.460883,-0.09929 -3.151792,0.09063 -3.245778,1.815364 -0.09013,1.654039 0.544406,2.865274 2.136239,3.24756 1.802607,0.432904 3.935094,0.785762 5.014695,-2.157643 0.902579,-2.460775 -1.705337,-2.816521 -3.905156,-2.905281 z"
       id="path2661-6"
       sodipodi:nodetypes="sssss" />
    <path
       style="fill:none;fill-opacity:0.533333;stroke:#ffffff;stroke-width:1.05833333;stroke-dasharray:none;stroke-opacity:1"
       d="m 26.309482,42.488147 c -2.460883,-0.09929 -3.425441,-0.456668 -4.15794,1.268066 -0.647538,1.524685 -0.550189,3.68622 1.041644,4.068506 1.802607,0.432904 4.387954,1.068702 5.197127,-1.154264 0.872915,-2.398077 0.118988,-4.093548 -2.080831,-4.182308 z"
       id="path2661-6-2"
       sodipodi:nodetypes="sssss" />
    <path
       style="fill:none;fill-opacity:0.533333;stroke:#ffffff;stroke-width:1.05833;stroke-dasharray:none;stroke-opacity:1"
       d="m 58.541065,17.155485 c -2.28323,0.923399 -3.151792,0.09063 -3.245778,1.815364 -0.09013,1.654039 0.505854,3.099511 2.136239,3.24756 1.422998,0.129217 2.726848,0.851321 4.558614,-1.519129 1.4011,-1.813135 -0.822197,-4.606174 -3.449075,-3.543795 z"
       id="path2661-6-7"
       sodipodi:nodetypes="sssss" />
    <path
       style="fill:none;fill-opacity:0.533333;stroke:#ffffff;stroke-width:1.05833;stroke-dasharray:none;stroke-opacity:1"
       d="m 48.780928,23.084542 c -2.460883,-0.09929 -2.878143,1.458873 -2.972129,3.183607 -0.09013,1.654039 0.67671,2.99655 2.227455,3.521209 2.897201,0.980201 3.106383,-0.412895 2.734289,-3.525887 -0.283231,-2.369558 0.210204,-3.090169 -1.989615,-3.178929 z"
       id="path2661-6-5"
       sodipodi:nodetypes="sssss" />
    <path
       style="fill:none;fill-opacity:0.533333;stroke:#ffffff;stroke-width:1.05833333;stroke-dasharray:none;stroke-opacity:1"
       d="m 7.3574037,33.850575 c -1.038583,0.771147 -1.443054,2.607531 -1.160993,3.869976 0.464278,2.078013 2.645753,4.736906 4.7729713,4.643973 2.069168,-0.0904 2.710798,-2.318741 2.837982,-4.385974 0.09302,-1.511929 -1.211466,-3.091563 -2.579984,-3.740977 C 9.7852997,33.553251 8.6389727,32.899011 7.3574037,33.850575 Z"
       id="path2663"
       sodipodi:nodetypes="ssssss" />
    <path
       style="fill:none;fill-opacity:0.533333;stroke:#ffffff;stroke-width:1.05833333;stroke-dasharray:none;stroke-opacity:1"
       d="m 47.268717,46.517965 c -1.035366,0.190255 -1.140364,1.377361 -1.641655,2.482184 -0.433468,0.955345 -1.749369,3.418456 -1.013897,3.954813 2.077558,1.515099 2.022416,2.421967 3.816544,2.334951 1.976133,-0.09584 4.124548,-2.411508 3.998976,-4.385974 -0.143276,-2.252832 -2.939757,-4.793953 -5.159968,-4.385974 z"
       id="path2665"
       sodipodi:nodetypes="ssssss" />
    <circle
       id="path8062"
       style="fill:#ffffff;stroke:#ffffff;stroke-width:1.05833333;stroke-opacity:1;stroke-dasharray:none;fill-opacity:1"
       cx="35.756756"
       cy="40.864868"
       r="0.39687499" />
    <circle
       id="path8064"
       style="fill:#ffffff;stroke:#ffffff;stroke-width:1.05833333;stroke-opacity:1;stroke-dasharray:none;fill-opacity:1"
       cx="17.513514"
       cy="42.415543"
       r="0.39687499" />
    <circle
       id="path8066"
       style="fill:#ffffff;stroke:#ffffff;stroke-width:1.05833333;stroke-opacity:1;stroke-dasharray:none;fill-opacity:1"
       cx="13.135136"
       cy="26.635136"
       r="0.39687499" />
    <circle
       id="path8068"
       style="fill:#ffffff;stroke:#ffffff;stroke-width:1.05833333;stroke-opacity:1;stroke-dasharray:none;fill-opacity:1"
       cx="21.618244"
       cy="10.581082"
       r="0.39687499" />
    <circle
       id="path8070"
       style="fill:#ffffff;stroke:#ffffff;stroke-width:1.05833333;stroke-opacity:1;stroke-dasharray:none;fill-opacity:1"
       cx="53.087837"
       cy="41.68581"
       r="0.39687499" />
    <circle
       id="path8072"
       style="fill:#ffffff;stroke:#ffffff;stroke-width:1.05833333;stroke-opacity:1;stroke-dasharray:none;fill-opacity:1"
       cx="44.239868"
       cy="58.195946"
       r="0.39687499" />
    <circle
       id="path8074"
       style="fill:#ffffff;stroke:#ffffff;stroke-width:1.05833333;stroke-opacity:1;stroke-dasharray:none;fill-opacity:1"
       cx="13.499999"
       cy="52.905407"
       r="0.39687499" />
  </g>
</svg>
