<svg xmlns="http://www.w3.org/2000/svg" viewBox="0 0 127.3 127.3"><defs><style>.cls-1{fill:#fff;}</style></defs><title>cross2</title><g id="Vrstva_2" data-name="Vrstva 2"><g id="cross"><path class="cls-1" d="M11.64,6a5.6,5.6,0,0,1,4,1.64L59.41,51.42l4.24,4.24,4.24-4.24L111.67,7.64a5.69,5.69,0,0,1,8,0,5.69,5.69,0,0,1,0,8L75.88,59.41l-4.24,4.24,4.24,4.24,43.78,43.78a5.65,5.65,0,0,1-8,8L67.89,75.88l-4.24-4.24-4.24,4.24L15.63,119.66a5.64,5.64,0,0,1-9.63-4,5.57,5.57,0,0,1,1.64-4L51.42,67.89l4.24-4.24-4.24-4.24L7.64,15.63a5.64,5.64,0,0,1,4-9.63m0-6A11.59,11.59,0,0,0,3.4,3.4h0a11.68,11.68,0,0,0,0,16.47L47.17,63.65,3.4,107.42a11.69,11.69,0,0,0,0,16.48h0a11.67,11.67,0,0,0,16.47,0L63.65,80.12l43.77,43.78a11.65,11.65,0,0,0,16.48-16.48L80.12,63.65,123.9,19.87A11.65,11.65,0,0,0,107.42,3.4L63.65,47.17,19.87,3.4A11.58,11.58,0,0,0,11.64,0Z"/></g></g></svg>