<?xml version="1.0" encoding="UTF-8" standalone="no"?>
<!-- Created with Inkscape (http://www.inkscape.org/) -->

<svg
   width="24"
   height="24"
   viewBox="0 0 6.3499999 6.35"
   version="1.1"
   id="svg5"
   inkscape:version="1.3.2 (091e20e, 2023-11-25, custom)"
   sodipodi:docname="eye_f.svg"
   xmlns:inkscape="http://www.inkscape.org/namespaces/inkscape"
   xmlns:sodipodi="http://sodipodi.sourceforge.net/DTD/sodipodi-0.dtd"
   xmlns="http://www.w3.org/2000/svg"
   xmlns:svg="http://www.w3.org/2000/svg">
  <sodipodi:namedview
     id="namedview7"
     pagecolor="#ffffff"
     bordercolor="#000000"
     borderopacity="0.25"
     inkscape:showpageshadow="2"
     inkscape:pageopacity="0.0"
     inkscape:pagecheckerboard="false"
     inkscape:deskcolor="#d1d1d1"
     inkscape:document-units="px"
     showgrid="true"
     inkscape:zoom="46.409876"
     inkscape:cx="11.549266"
     inkscape:cy="12.335736"
     inkscape:window-width="1920"
     inkscape:window-height="1001"
     inkscape:window-x="-9"
     inkscape:window-y="-9"
     inkscape:window-maximized="1"
     inkscape:current-layer="layer1">
    <inkscape:grid
       type="xygrid"
       id="grid132"
       empspacing="4"
       dotted="false"
       originx="0"
       originy="0"
       spacingy="0.26458333"
       spacingx="0.26458333"
       units="px"
       visible="true" />
  </sodipodi:namedview>
  <defs
     id="defs2" />
  <g
     inkscape:label="Vrstva 1"
     inkscape:groupmode="layer"
     id="layer1">
    <path
       id="path1-8"
       style="fill:#000000;fill-opacity:1;stroke:#000000;stroke-width:0.264583;stroke-linecap:round;stroke-linejoin:round;stroke-dasharray:none"
       d="M 3.1817179 1.5875 C 2.1234021 1.5879699 1.0626761 2.1176023 0.52916666 3.175 C 1.5789328 5.2935544 4.7538145 5.2897952 5.8208333 3.175 C 5.2959503 2.1157227 4.2400338 1.5870301 3.1817179 1.5875 z M 3.1760335 1.7208252 C 3.9750203 1.7208253 4.6307251 2.3770466 4.6307251 3.1760335 C 4.6307251 3.9750203 3.9750203 4.630725 3.1760335 4.6307251 C 2.3770465 4.6307251 1.7208252 3.9750204 1.7208252 3.1760335 C 1.7208252 2.3770465 2.3770465 1.7208252 3.1760335 1.7208252 z M 3.1760335 2.5135416 C 2.80602 2.5135416 2.5135416 2.80602 2.5135416 3.1760335 C 2.5135416 3.5460469 2.80602 3.8359415 3.1760335 3.8359415 C 3.5460468 3.8359415 3.8359415 3.5460468 3.8359415 3.1760335 C 3.8359415 2.8060201 3.5460468 2.5135416 3.1760335 2.5135416 z " />
  </g>
</svg>
