<?xml version="1.0" encoding="UTF-8" standalone="no"?>
<!-- Created with Inkscape (http://www.inkscape.org/) -->

<svg
   width="24"
   height="24"
   viewBox="0 0 6.3499999 6.35"
   version="1.1"
   id="svg5"
   inkscape:version="1.3.2 (091e20e, 2023-11-25, custom)"
   sodipodi:docname="eye_f.svg"
   xmlns:inkscape="http://www.inkscape.org/namespaces/inkscape"
   xmlns:sodipodi="http://sodipodi.sourceforge.net/DTD/sodipodi-0.dtd"
   xmlns="http://www.w3.org/2000/svg"
   xmlns:svg="http://www.w3.org/2000/svg">
  <sodipodi:namedview
     id="namedview7"
     pagecolor="#ffffff"
     bordercolor="#000000"
     borderopacity="0.25"
     inkscape:showpageshadow="2"
     inkscape:pageopacity="0.0"
     inkscape:pagecheckerboard="false"
     inkscape:deskcolor="#d1d1d1"
     inkscape:document-units="px"
     showgrid="true"
     inkscape:zoom="32.816738"
     inkscape:cx="10.848123"
     inkscape:cy="12.539333"
     inkscape:window-width="1920"
     inkscape:window-height="1001"
     inkscape:window-x="-9"
     inkscape:window-y="-9"
     inkscape:window-maximized="1"
     inkscape:current-layer="layer1">
    <inkscape:grid
       type="xygrid"
       id="grid132"
       empspacing="4"
       dotted="false"
       originx="0"
       originy="0"
       spacingy="0.26458333"
       spacingx="0.26458333"
       units="px"
       visible="true" />
  </sodipodi:namedview>
  <defs
     id="defs2" />
  <g
     inkscape:label="Vrstva 1"
     inkscape:groupmode="layer"
     id="layer1">
    <path
       id="path1-8"
       style="fill:#000000;fill-opacity:1;stroke:#000000;stroke-width:0.264583;stroke-linecap:round;stroke-linejoin:round;stroke-dasharray:none"
       d="M 3.1817179,1.5875 C 2.123401,1.5879699 1.0626766,2.1176013 0.52916666,3.175 1.5789338,5.2935565 4.7538134,5.2897973 5.8208333,3.175 5.2959498,2.1157217 4.2400348,1.5870301 3.1817179,1.5875 Z m -0.00568,0.2640666 c 0.7274914,1e-7 1.3218831,0.5969754 1.3218831,1.3244669 0,0.7274914 -0.5943917,1.321883 -1.3218831,1.3218831 -0.7274915,0 -1.3244669,-0.5943917 -1.3244669,-1.3218831 0,-0.7274915 0.5969754,-1.3244669 1.3244669,-1.3244669 z m 0,0.5291666 c -0.441509,0 -0.7953003,0.3537913 -0.7953003,0.7953003 0,0.4415089 0.3537913,0.7927165 0.7953003,0.7927165 0.4415089,0 0.7927165,-0.3512076 0.7927165,-0.7927165 0,-0.441509 -0.3512076,-0.7953003 -0.7927165,-0.7953003 z" />
  </g>
</svg>
