<svg xmlns="http://www.w3.org/2000/svg" viewBox="0 0 497.6 509"><defs><style>.cls-1{fill:#fff;}</style></defs><title>iconWhite1</title><g id="Vrstva_2" data-name="Vrstva 2"><g id="Vrstva_2-2" data-name="Vrstva 2"><path class="cls-1" d="M444.1,335.5s53-174-45-252C325.77,25.13,241.6,25,141.6,16,63.53,9,16.6,0,16.6,0S38.26,110.71,174.1,204.5c42,29,116,39.5,173,65S444.1,335.5,444.1,335.5Z"/><path class="cls-1" d="M497.6,509s-16.52-95.92-80.5-158.5c-91-89-171-59-277-146C19.27,105.33,16.6,0,16.6,0s-3.8,47.83-15,179c-8.5,99.5,15.5,169.5,106.5,234.5,142,101.41,299-9,299-9a74.23,74.23,0,0,1,24,43c6.47,39.49-9.51,55.43-9.5,55.5Z"/></g></g></svg>