<svg xmlns="http://www.w3.org/2000/svg" xmlns:xlink="http://www.w3.org/1999/xlink" viewBox="0 0 497.6 509"><defs><style>.cls-1{fill:none;}.cls-2{fill:#479911;}.cls-3{clip-path:url(#clip-path);}.cls-4{fill:#79cf40;}</style><clipPath id="clip-path" transform="translate(-34.9 -22.5)"><path class="cls-1" d="M273,34s51,42,51,131c0,105-36,170-36,170l-34-40s25.17-64,22-138c-3-70-48-131-48-131ZM134,0,0,5,78.74,254.85,155,289s34.67-77,30-168C181,43,134,0,134,0ZM425,207C415,72,347,49,347,49l-42-7s35,32,43,118c7.17,77.08-28,165-28,165l91,46S431.06,288.78,425,207Z"/></clipPath></defs><title>iconColours2</title><g id="Vrstva_2" data-name="Vrstva 2"><g id="Vrstva_1-2" data-name="Vrstva 1"><path class="cls-2" d="M479,358s53-174-45-252C360.67,47.63,276.5,47.5,176.5,38.5c-78.07-7-125-16-125-16S73.16,133.21,209,227c42,29,116,39.5,173,65S479,358,479,358Z" transform="translate(-34.9 -22.5)"/><g class="cls-3"><path class="cls-4" d="M479,358s53-174-45-252C360.67,47.63,276.5,47.5,176.5,38.5c-78.07-7-125-16-125-16S73.16,133.21,209,227c42,29,116,39.5,173,65S479,358,479,358Z" transform="translate(-34.9 -22.5)"/></g><path class="cls-2" d="M532.5,531.5S516,435.58,452,373c-91-89-171-59-277-146C54.17,127.83,51.5,22.5,51.5,22.5s-3.79,47.83-15,179C28,301,52,371,143,436c142,101.41,299-9,299-9a74.23,74.23,0,0,1,24,43c6.47,39.49-9.51,55.43-9.5,55.5Z" transform="translate(-34.9 -22.5)"/></g></g></svg>