<?xml version="1.0" encoding="utf-8"?>
<!-- Generator: Adobe Illustrator 23.0.1, SVG Export Plug-In . SVG Version: 6.00 Build 0)  -->
<svg version="1.1" xmlns="http://www.w3.org/2000/svg" xmlns:xlink="http://www.w3.org/1999/xlink" x="0px" y="0px"
	 viewBox="0 0 400 400" style="enable-background:new 0 0 400 400;" xml:space="preserve">
<style type="text/css">
	.st0{display:none;}
	.st1{fill:#999999;stroke:#999999;stroke-miterlimit:10;}
	.st2{fill:#FFFFFF;}
</style>
<g id="Vrstva_1" class="st0">
</g>
<g id="Vrstva_2">
	<circle class="st1" cx="199.64" cy="200.36" r="199.64"/>
</g>
<g id="Vrstva_3">
	<g>
		<g>
			<path class="st2" d="M153.53,331.22v-11.76c26.46-2.52,29.4-4.62,29.4-33.18v-86.52c0-26.04-1.26-27.72-26.46-31.92v-10.08
				c21.84-3.78,41.58-9.24,59.64-16.8c0,17.64,0,35.28,0,52.92v92.4c0,28.56,2.94,30.66,30.24,33.18v11.76H153.53z M197.21,99.8
				c-11.76,0-22.26-10.5-22.26-22.26c0-13.44,10.5-23.1,22.68-23.1c11.76,0,21.42,9.66,21.42,23.1
				C219.05,89.3,209.39,99.8,197.21,99.8z"/>
		</g>
	</g>
</g>
</svg>
