<?xml version="1.0" encoding="UTF-8" standalone="no"?>
<!-- Created with Inkscape (http://www.inkscape.org/) -->

<svg
   width="24"
   height="24"
   viewBox="0 0 6.3499999 6.35"
   version="1.1"
   id="svg5"
   inkscape:version="1.3.2 (091e20e, 2023-11-25, custom)"
   sodipodi:docname="info_f_2.svg"
   xmlns:inkscape="http://www.inkscape.org/namespaces/inkscape"
   xmlns:sodipodi="http://sodipodi.sourceforge.net/DTD/sodipodi-0.dtd"
   xmlns="http://www.w3.org/2000/svg"
   xmlns:svg="http://www.w3.org/2000/svg">
  <sodipodi:namedview
     id="namedview7"
     pagecolor="#ffffff"
     bordercolor="#000000"
     borderopacity="0.25"
     inkscape:showpageshadow="2"
     inkscape:pageopacity="0.0"
     inkscape:pagecheckerboard="false"
     inkscape:deskcolor="#d1d1d1"
     inkscape:document-units="px"
     showgrid="true"
     inkscape:zoom="16.408369"
     inkscape:cx="5.7897284"
     inkscape:cy="10.878595"
     inkscape:window-width="1920"
     inkscape:window-height="1001"
     inkscape:window-x="-9"
     inkscape:window-y="-9"
     inkscape:window-maximized="1"
     inkscape:current-layer="layer1">
    <inkscape:grid
       type="xygrid"
       id="grid132"
       empspacing="4"
       dotted="false"
       originx="0"
       originy="0"
       spacingy="0.26458333"
       spacingx="0.26458333"
       units="px"
       visible="true" />
  </sodipodi:namedview>
  <defs
     id="defs2">
    <inkscape:path-effect
       effect="fillet_chamfer"
       id="path-effect1"
       is_visible="true"
       lpeversion="1"
       nodesatellites_param="F,0,1,1,0,0,0,1 @ F,0,1,1,0,0,0,1 @ F,0,1,1,0,0,0,1 @ F,0,1,1,0,0,0,1"
       radius="0"
       unit="px"
       method="auto"
       mode="F"
       chamfer_steps="1"
       flexible="false"
       use_knot_distance="true"
       apply_no_radius="true"
       apply_with_radius="true"
       only_selected="false"
       hide_knots="false" />
  </defs>
  <g
     inkscape:label="Vrstva 1"
     inkscape:groupmode="layer"
     id="layer1">
    <path
       id="path1"
       style="fill:#000000;fill-opacity:1;stroke:none;stroke-width:0.264583;stroke-linecap:round;stroke-linejoin:round;stroke-dasharray:none"
       d="M 3.175,0.52916666 C 1.7137465,0.52916664 0.52916647,1.7137466 0.52916666,3.175 0.52916649,4.6362533 1.7137465,5.8208333 3.175,5.8208333 4.6362535,5.8208333 5.8208335,4.6362533 5.8208333,3.175 5.8208335,1.7137467 4.6362535,0.52916666 3.175,0.52916666 Z m -0.0031,0.65835774 c 0.2195798,0 0.4004924,0.1809126 0.4004923,0.4004924 0,0.2195797 -0.1809125,0.4004923 -0.4004923,0.4004923 C 2.9523196,1.9885092 2.771407,1.8075966 2.771407,1.5880168 2.7714069,1.3684369 2.9523195,1.1875244 3.1718994,1.1875244 Z M 2.9098999,2.5135416 h 0.5296834 c 0.073464,-2.802e-4 0.1330887,0.059345 0.1328084,0.1328085 v 2.38125 c 2.802e-4,0.073464 -0.059345,0.1330886 -0.1328084,0.1328084 H 2.9098999 C 2.8364361,5.1606888 2.7768112,5.1010639 2.7770914,5.0276001 v -2.38125 C 2.7768111,2.5728862 2.836436,2.5132613 2.9098999,2.5135416 Z"
       sodipodi:nodetypes="ssssssssssccccccccc" />
    <ellipse
       style="fill:none;stroke:#000000;stroke-width:0.264583;stroke-linecap:round;stroke-linejoin:round;stroke-dasharray:none"
       id="path1-9"
       cx="3.175"
       cy="3.1749997"
       rx="2.6458333"
       ry="2.645833" />
  </g>
</svg>
