<?xml version="1.0" encoding="UTF-8" standalone="no"?>
<!-- Created with Inkscape (http://www.inkscape.org/) -->

<svg
   width="24"
   height="24"
   viewBox="0 0 6.3499999 6.35"
   version="1.1"
   id="svg5"
   inkscape:version="1.3.2 (091e20e, 2023-11-25, custom)"
   sodipodi:docname="info-cross_f_2.svg"
   xmlns:inkscape="http://www.inkscape.org/namespaces/inkscape"
   xmlns:sodipodi="http://sodipodi.sourceforge.net/DTD/sodipodi-0.dtd"
   xmlns="http://www.w3.org/2000/svg"
   xmlns:svg="http://www.w3.org/2000/svg">
  <sodipodi:namedview
     id="namedview7"
     pagecolor="#ffffff"
     bordercolor="#000000"
     borderopacity="0.25"
     inkscape:showpageshadow="2"
     inkscape:pageopacity="0.0"
     inkscape:pagecheckerboard="false"
     inkscape:deskcolor="#d1d1d1"
     inkscape:document-units="px"
     showgrid="true"
     inkscape:zoom="23.204938"
     inkscape:cx="5.3867845"
     inkscape:cy="8.9420623"
     inkscape:window-width="1920"
     inkscape:window-height="1001"
     inkscape:window-x="-9"
     inkscape:window-y="-9"
     inkscape:window-maximized="1"
     inkscape:current-layer="layer1">
    <inkscape:grid
       type="xygrid"
       id="grid132"
       empspacing="4"
       dotted="false"
       originx="0"
       originy="0"
       spacingy="0.26458333"
       spacingx="0.26458333"
       units="px"
       visible="true" />
  </sodipodi:namedview>
  <defs
     id="defs2">
    <inkscape:path-effect
       effect="fillet_chamfer"
       id="path-effect1"
       is_visible="true"
       lpeversion="1"
       nodesatellites_param="F,0,1,1,0,0,0,1 @ F,0,1,1,0,0,0,1 @ F,0,1,1,0,0,0,1 @ F,0,1,1,0,0,0,1"
       radius="0"
       unit="px"
       method="auto"
       mode="F"
       chamfer_steps="1"
       flexible="false"
       use_knot_distance="true"
       apply_no_radius="true"
       apply_with_radius="true"
       only_selected="false"
       hide_knots="false" />
  </defs>
  <g
     inkscape:label="Vrstva 1"
     inkscape:groupmode="layer"
     id="layer1">
    <path
       id="path6"
       style="fill:#000000;fill-opacity:1;stroke:none;stroke-width:0.264583;stroke-linecap:round;stroke-linejoin:round"
       d="m 5.04517,1.3048299 -1.48267,1.477104 0.00886,2.2481982 c -8.575e-4,0.0727 -0.060167,0.1290706 -0.1328084,0.1287258 H 2.9098999 C 2.8380639,5.1580748 2.7800031,5.100014 2.7791585,5.0281168 V 3.571875 L 1.3048299,5.0467203 C 1.8013186,5.5424928 2.4743988,5.8207588 3.1760335,5.8203165 4.6360764,5.8194613 5.8194614,4.6360762 5.8203165,3.1760335 5.8203476,2.4741764 5.541511,1.8010648 5.04517,1.3048299 Z"
       sodipodi:nodetypes="ccccccccccc" />
    <path
       id="path6-7"
       style="fill:none;stroke:#000000;stroke-width:0.264583;stroke-linecap:round;stroke-linejoin:round"
       d="M 5.0449219,1.3046875 1.3046875,5.046875 A 2.6458333,2.645833 0 0 0 3.1757812,5.8203125 2.6458333,2.645833 0 0 0 5.8203125,3.1757812 2.6458333,2.645833 0 0 0 5.0449219,1.3046875 Z" />
    <path
       id="path4"
       style="fill:#000000;fill-opacity:1;stroke:none;stroke-width:0.264583;stroke-linecap:round;stroke-linejoin:round"
       d="M 3.1760335,0.52916666 C 1.7139726,0.52859542 0.52859526,1.7139728 0.52916666,3.1760335 0.52892646,3.6173251 0.6390667,4.0516684 0.84956054,4.4395223 L 3.339331,1.9513021 c -0.051034,0.023786 -0.1078516,0.037207 -0.1674316,0.037207 -0.2195799,1e-7 -0.4004924,-0.1809124 -0.4004924,-0.4004923 -10e-8,-0.21958 0.1809124,-0.4004924 0.4004924,-0.4004924 0.2195799,0 0.4004924,0.1809125 0.4004923,0.4004924 0,0.059938 -0.013668,0.1166766 -0.037724,0.1679484 L 4.4395223,0.8516276 C 4.051857,0.6404144 3.617503,0.52956087 3.1760335,0.52916666 Z"
       sodipodi:nodetypes="ccccssssccc" />
    <path
       id="path4-6"
       style="fill:none;stroke:#000000;stroke-width:0.264583;stroke-linecap:round;stroke-linejoin:round"
       d="M 3.1757812,0.5292969 A 2.6458333,2.645833 0 0 0 0.52929691,3.1757812 2.6458333,2.645833 0 0 0 0.84960941,4.4394531 L 4.4394531,0.8515625 A 2.6458333,2.645833 0 0 0 3.1757812,0.5292969 Z" />
    <path
       style="display:inline;fill:#000000;stroke:#000000;stroke-width:0.529167;stroke-linecap:round;stroke-linejoin:round;stroke-dasharray:none;stroke-opacity:1"
       d="M 0.52916663,5.820833 5.820833,0.52916663"
       id="path3" />
  </g>
</svg>
