<svg xmlns="http://www.w3.org/2000/svg" xmlns:xlink="http://www.w3.org/1999/xlink" viewBox="0 0 1101 816.9"><defs><style>.cls-1{fill:url(#Nepojmenovaný_přechod_3);}.cls-2{fill:#353535;}.cls-3{fill:#ffdca4;}.cls-4{fill:#eac28c;}.cls-5{fill:#b2b2b2;}.cls-6{fill:#331a09;}.cls-7{fill:#479911;}.cls-8{fill:#366e11;}</style><linearGradient id="Nepojmenovaný_přechod_3" x1="550.5" y1="820.58" x2="550.5" y2="147.57" gradientUnits="userSpaceOnUse"><stop offset="0" stop-opacity="1" stop-color="#79cf40"/><stop offset="1" stop-opacity="0" stop-color="#79cf40"/></linearGradient></defs><title>leafGuyLight_1</title><g id="Vrstva_2" data-name="Vrstva 2"><g id="Vrstva_3" data-name="Vrstva 3"><path class="cls-1" d="M0,816.9s32-90,112-161,186-84,266-137c8.79-5.83,122-126,209-172s156-45,230-70c83.39-28.18,111-58,194-83s90-19,90-19v642Z"/></g><g id="Vrstva_4" data-name="Vrstva 4"><path class="cls-2" d="M685,578.9l-18,120c-6,40-13,118-13,118h76s25-120,32-119,7,0,7,0,3,25,9,60l6,35,7,24h84s-3-47,0-112a1142.59,1142.59,0,0,1,11-115Z"/><path class="cls-3" d="M651,294.9s-49.44,34.75-89,27c-51-10-80.42-124.8-111-118-27,6,35.31,156.49,87,174,62,21,141-26,141-26Z"/><path class="cls-4" d="M751,194.9c1,24-10,49-10,49l45,32,64-32s-13-21-11-41,14-47,14-47Z"/><path class="cls-5" d="M745,231.9s-19-1-51,14-46,34-62,47-28,21-28,21l43,61s14-9,20-8,17,54,14,88-18,122-10,136c13.31,23.29,50,23,77,25s119.53-7.3,129-10c14-4,19-14,19-14s-11-59-9-87,18-94,18-94l-39-68-20-60,12-41-13-8s-17,21-55,17S745,231.9,745,231.9Z"/><path class="cls-3" d="M929,321.9s10,107-41,122-96-84-97-155-29.71-63.93-19-80c8-12,34-4,44,19,30,68.92,23,113,52,129,20.89,11.52-15-65-15-65Z"/><path class="cls-3" d="M764,42.9s-34,6-51,25-20,80-8,112c5,13.4,20,26,39,28s71.38,6.18,97-25c23-28,23-87,23-87l-41-50Z"/><path class="cls-5" d="M873,357.9l74-24s-9.49-40.57-27-61c-12-14-34-19-45-24-24-11-29-13-29-13l-3,52,19,57Z"/><path class="cls-6" d="M657,49.9c-11,5-10,21,0,35s21,9,27,10c7.18,1.19,12,5,11,8,0,0-7,11,1,17s6-19,13-24,4,3,26-5,24-22,36-23,13,12,25,18,24-6,28,5-4,10-6,20c-1,5,1,13,11,15,14.94,3,13,17,11,25s10,29,21,10,7-10,18-22,12-16,11-23-5-19-1-33,6.78-26.63,0-35c-17-21-14-6-31-19s-14-25-26-28-20,2-32,8-23,0-32-1-12,4-28,8l-16,4s-5-3-13,1-13,16-19,20S668,44.9,657,49.9Z"/><path class="cls-7" d="M505,77.9s-8,11-27,25c-18.22,13.42-32.94,18.63-38,51-5,32,22,54,22,54s38,2,52-25,6-41,0-64S505,77.9,505,77.9Z"/><path class="cls-8" d="M497,109.9s-10,40-24,72-45,75-45,75-1,2,0,7,4,3,4,3,33-54,45-85S497,109.9,497,109.9Z"/></g></g></svg>