<?xml version="1.0" encoding="UTF-8" standalone="no"?>
<svg
   viewBox="0 0 485 380.5"
   version="1.1"
   id="svg8"
   sodipodi:docname="learn.svg"
   inkscape:version="1.3.2 (091e20e, 2023-11-25, custom)"
   xmlns:inkscape="http://www.inkscape.org/namespaces/inkscape"
   xmlns:sodipodi="http://sodipodi.sourceforge.net/DTD/sodipodi-0.dtd"
   xmlns="http://www.w3.org/2000/svg"
   xmlns:svg="http://www.w3.org/2000/svg">
  <sodipodi:namedview
     id="namedview8"
     pagecolor="#ffffff"
     bordercolor="#000000"
     borderopacity="0.25"
     inkscape:showpageshadow="2"
     inkscape:pageopacity="0.0"
     inkscape:pagecheckerboard="0"
     inkscape:deskcolor="#d1d1d1"
     inkscape:zoom="2.0683311"
     inkscape:cx="242.70776"
     inkscape:cy="190.25"
     inkscape:window-width="1920"
     inkscape:window-height="1001"
     inkscape:window-x="-9"
     inkscape:window-y="-9"
     inkscape:window-maximized="1"
     inkscape:current-layer="Vrstva_1-2" />
  <defs
     id="defs7">
    <style
       id="style1">.cls-1{fill:url(#Nepojmenovaný_přechod_14);}.cls-2{fill:#479911;}.cls-3{fill:#366e11;stroke:#366e11;stroke-linecap:round;stroke-linejoin:round;stroke-width:12px;}</style>
    <linearGradient
       id="Nepojmenovaný_přechod_14"
       x1="242.5"
       y1="104.82"
       x2="242.5"
       y2="398.8"
       gradientUnits="userSpaceOnUse">
      <stop
         offset="0"
         stop-color="#fff"
         id="stop1"
         style="stop-color:#79cf40;stop-opacity:0;" />
      <stop
         offset="1"
         stop-color="#79cf40"
         id="stop7" />
    </linearGradient>
  </defs>
  <title
     id="title7">learn</title>
  <g
     id="Vrstva_2"
     data-name="Vrstva 2">
    <g
       id="Vrstva_1-2"
       data-name="Vrstva 1">
      <rect
         class="cls-1"
         y="107.5"
         width="485"
         height="273"
         rx="57.9"
         id="rect7" />
    </g>
    <g
       id="Vrstva_7"
       data-name="Vrstva 7">
      <path
         class="cls-2"
         d="M196.08,99.06C102.68,99.06,28,140.05,28,220.9c0,38.62,37.28,41.66,58,40.36,0-.58,4-7.94,9-13.76,4.59-5.38,10-9.13,13.78-12.45,0-.06,0-.11,0-.17-4.5-24.83-30-51.74-57-40.22-6.08,2.6-11.36-6.34-5.24-9,16.79-7.17,33.68-3.42,47,6.27l0-.13c4.28-15.05,17-23.9,31.47-28,2.34-.66,4.68-1.21,7-1.67-.7-10.85-6.7-24.61-16.36-29.86-5.87-3.19-.63-12.15,5.24-9,12.43,6.75,20.19,23.27,21.41,37.32,17.69-1.7,35.6.75,53.32,2.83,2.61-9.07,5.4-18.48,10.83-26.3,5.81-8.39,14.07-14.08,23.2-18.41,6-2.85,11.27,6.1,5.24,9-7.79,3.69-15.28,8.27-20.11,15.61-4.25,6.46-6.56,13.91-8.7,21.3,26.54,2.68,65.85,5,80.23-22.73,3.08-5.93,12-.68,9,5.24-7.87,15.17-23.09,23.45-39.37,26.77-27.9,5.68-55.43-.58-83.25-2.77C151,169.49,108,168.5,102,199.5c8.21,8.12,12.91,17.1,15.81,28.38,1.14-.81,2.29-1.61,3.47-2.38,13.84-9.05,29.48-13.57,45.73-15.85,19.78-2.78,39.82-2.16,59.58.42a276.83,276.83,0,0,1,29.33,5.17c4.25,1,8.47,2.19,12.7,3.31,6.84-12.24,14.48-28.58,29.29-32.18,15.84-3.84,32.92,9.88,42.93,20.66,4.54,4.89-2.78,12.24-7.33,7.34a73.53,73.53,0,0,0-16.29-13.27c-5.1-3-11.62-6.36-17.68-4.41-9.87,3.16-15.63,15.11-20.49,24.34,2.39.49,4.79.9,7.21,1.2,6.55.81,6.61,11.19,0,10.38-19-2.35-37.31-8.88-56.33-11.69s-38.63-3.77-57.8-1.55c-16.22,1.87-31.85,6.09-45.62,15.09-10.42,6.81-20.51,14-27.51,25-2.4,3.77-6.67,9.22,4.74,32,26.1,52.08,75.88,19.54,147.32,25.05,59.14,4.55,78.86,30.74,107.91,4.55C421.42,264.8,320.58,99.06,196.08,99.06ZM361.16,288.14c-9.93-7.29-20.23-15.25-31.94-19.46A51.72,51.72,0,0,0,306.58,266c6.88,3.55,12.64,9.28,17.33,15.52,6.95,9.23,12.85,21.42,11.61,33.28-.68,6.58-11.06,6.63-10.37,0,1-9.28-3.37-18.35-8.55-25.79-4.78-6.84-16.78-18.5-25.6-19.53-2.34-.27.53,1.62-.15-.15-29.45,8.75-56.79,23.62-86.05,33-6.39,2-9.1-8-2.76-10,14.37-4.59,28.29-10.37,42.19-16.18-18.23-11.77-41.49-17.43-62.91-14.21-18.91,2.85-41.47,23.26-30.42,43.42,3.21,5.86-5.75,11.09-9,5.24-13.57-24.76,7.75-50.28,31.49-57.48,13.24-4,28.72-2.65,42,.2a100,100,0,0,1,39.21,17.5,5.63,5.63,0,0,1,.72.65c13.35-5.6,27-11.29,41.1-14.38,12.27-2.68,24.91-2.48,36.72,2.05,12.16,4.67,22.75,12.38,33.17,20C371.73,283.09,366.54,292.09,361.16,288.14Z"
         id="path7" />
    </g>
    <g
       id="Vrstva_6"
       data-name="Vrstva 6">
      <path
         class="cls-3"
         d="M439,103.5,361.5,6,284,103.5h45v129a12,12,0,0,0,12,12h40a12,12,0,0,0,12-12v-129Z"
         id="path8" />
    </g>
  </g>
</svg>
