<svg xmlns="http://www.w3.org/2000/svg" viewBox="0 0 117 117"><defs><style>.cls-1{fill:none;}.cls-2{fill:#bbb;}</style></defs><title>loading</title><g id="Vrstva_2" data-name="Vrstva 2"><g id="Vrstva_1-2" data-name="Vrstva 1"><path class="cls-1" d="M13,58.5A45.5,45.5,0,0,0,81.62,97.69L59,58.51,81.63,19.32A45.5,45.5,0,0,0,13,58.5Z"/><path class="cls-2" d="M58.5,104A45.5,45.5,0,1,1,81.63,19.32l6.5-11.26a58.5,58.5,0,1,0,0,100.88l-6.5-11.25A45.36,45.36,0,0,1,58.5,104Z"/><path class="cls-1" d="M117,58.5A58.48,58.48,0,0,0,88.13,8.06l-6.5,11.26a45.5,45.5,0,0,1,0,78.37l6.5,11.25A58.44,58.44,0,0,0,117,58.5Z"/></g></g></svg>