<svg xmlns="http://www.w3.org/2000/svg" viewBox="0 0 127.5 128"><defs><style>.cls-1{fill:#fff;}</style></defs><title>logout</title><g id="Vrstva_2" data-name="Vrstva 2"><g id="logout"><path class="cls-1" d="M78,33.49l39.75,31L78,95.51V72H33V57H78V33.49M72,21.2V51H27V78H72v29.8l55.5-43.3L72,21.2Z"/><path class="cls-1" d="M77,114.51V116a6,6,0,0,1-6,6H12a6,6,0,0,1-6-6V12a6,6,0,0,1,6-6H71a6,6,0,0,1,6,6v1.29l6,4.4V12A12,12,0,0,0,71,0H12A12,12,0,0,0,0,12V116a12,12,0,0,0,12,12H71a12,12,0,0,0,12-12v-5.89Z"/></g></g></svg>