<?xml version="1.0" encoding="UTF-8" standalone="no"?>
<!-- Created with Inkscape (http://www.inkscape.org/) -->

<svg
   width="24"
   height="24"
   viewBox="0 0 6.3499999 6.35"
   version="1.1"
   id="svg5"
   inkscape:version="1.3.2 (091e20e, 2023-11-25, custom)"
   sodipodi:docname="mail_f_color.svg"
   xmlns:inkscape="http://www.inkscape.org/namespaces/inkscape"
   xmlns:sodipodi="http://sodipodi.sourceforge.net/DTD/sodipodi-0.dtd"
   xmlns="http://www.w3.org/2000/svg"
   xmlns:svg="http://www.w3.org/2000/svg">
  <sodipodi:namedview
     id="namedview7"
     pagecolor="#ffffff"
     bordercolor="#000000"
     borderopacity="0.25"
     inkscape:showpageshadow="2"
     inkscape:pageopacity="0.0"
     inkscape:pagecheckerboard="false"
     inkscape:deskcolor="#d1d1d1"
     inkscape:document-units="px"
     showgrid="true"
     inkscape:zoom="23.204938"
     inkscape:cx="3.8784848"
     inkscape:cy="12.303416"
     inkscape:window-width="1920"
     inkscape:window-height="1001"
     inkscape:window-x="-9"
     inkscape:window-y="-9"
     inkscape:window-maximized="1"
     inkscape:current-layer="layer1">
    <inkscape:grid
       type="xygrid"
       id="grid132"
       empspacing="4"
       dotted="false"
       originx="0"
       originy="0"
       spacingy="0.26458333"
       spacingx="0.26458333"
       units="px"
       visible="true" />
  </sodipodi:namedview>
  <defs
     id="defs2">
    <inkscape:path-effect
       effect="fillet_chamfer"
       id="path-effect1"
       is_visible="true"
       lpeversion="1"
       nodesatellites_param="F,0,1,1,0,0.52805404,0,1 @ F,0,1,1,0,0.52805404,0,1 @ F,0,0,1,0,0.52805404,0,1 @ F,0,1,1,0,0.52805404,0,1"
       radius="0"
       unit="px"
       method="auto"
       mode="F"
       chamfer_steps="1"
       flexible="false"
       use_knot_distance="true"
       apply_no_radius="true"
       apply_with_radius="true"
       only_selected="false"
       hide_knots="false" />
    <inkscape:path-effect
       effect="fillet_chamfer"
       id="path-effect1-5"
       is_visible="true"
       lpeversion="1"
       nodesatellites_param="F,0,1,1,0,0.52805404,0,1 @ F,0,1,1,0,0.52805404,0,1 @ F,0,0,1,0,0.52805404,0,1 @ F,0,1,1,0,0.52805404,0,1"
       radius="0"
       unit="px"
       method="auto"
       mode="F"
       chamfer_steps="1"
       flexible="false"
       use_knot_distance="true"
       apply_no_radius="true"
       apply_with_radius="true"
       only_selected="false"
       hide_knots="false" />
  </defs>
  <g
     inkscape:label="Vrstva 1"
     inkscape:groupmode="layer"
     id="layer1">
    <path
       id="rect1"
       style="fill:#cf9e58;stroke:none;stroke-width:0.264583;stroke-linecap:round;stroke-linejoin:round;fill-opacity:1"
       d="M 1.0572998 1.0588501 A 0.52805404 0.52805404 0 0 0 0.54983724 1.4577921 A 0.1322915 0.1322915 0 0 1 0.60564778 1.4784627 L 3.1760335 3.2773193 L 5.7443522 1.4784627 A 0.1322915 0.1322915 0 0 1 5.8032633 1.4567586 A 0.52805404 0.52805404 0 0 0 5.2921834 1.0588501 L 1.0572998 1.0588501 z M 0.52916666 1.7487305 L 0.52916666 4.6012695 L 2.5662516 3.1760335 L 0.52916666 1.7487305 z M 5.8203165 1.7487305 L 3.7832316 3.1760335 L 5.8203165 4.6012695 L 5.8203165 1.7487305 z M 3.5527547 3.3357137 L 3.2499308 3.5486206 A 0.13230472 0.13230472 0 0 1 3.0995524 3.5486206 L 2.7967285 3.3377807 L 0.60564778 4.8710205 A 0.1322915 0.1322915 0 0 1 0.54932047 4.891691 A 0.52805404 0.52805404 0 0 0 1.0572998 5.2911499 L 5.2921834 5.2911499 A 0.52805404 0.52805404 0 0 0 5.8001627 4.891691 A 0.1322915 0.1322915 0 0 1 5.7443522 4.8710205 L 3.5527547 3.3357137 z " />
    <path
       id="rect1-5"
       style="display:inline;fill:none;stroke:#cf9e58;stroke-width:0.264583;stroke-linecap:round;stroke-linejoin:round;stroke-opacity:1"
       d="m 0.52929688,1.5866478 v 3.1763138 a 0.52805404,0.52805404 45 0 0 0.52805402,0.528054 h 4.2349076 a 0.52805404,0.52805404 135 0 0 0.528054,-0.528054 V 1.5866478 A 0.52805404,0.52805404 45 0 0 5.2922585,1.0585938 H 1.0573509 a 0.52805404,0.52805404 135 0 0 -0.52805402,0.528054 z"
       transform="translate(5.205732e-4,8.5206405e-4)"
       inkscape:original-d="M 0.52929688,1.0585938 V 5.2910156 H 5.8203125 V 1.0585938 Z"
       inkscape:path-effect="#path-effect1-5" />
  </g>
</svg>
