<?xml version="1.0" encoding="utf-8"?>
<!-- Generator: Adobe Illustrator 23.0.1, SVG Export Plug-In . SVG Version: 6.00 Build 0)  -->
<svg version="1.1" xmlns="http://www.w3.org/2000/svg" xmlns:xlink="http://www.w3.org/1999/xlink" x="0px" y="0px"
	 viewBox="0 0 64 64" style="enable-background:new 0 0 64 64;" xml:space="preserve">
<style type="text/css">
	.st0{display:none;}
	.st1{display:inline;fill:#C1272D;stroke:#C1272D;stroke-width:0.25;stroke-miterlimit:10;}
	.st2{display:inline;fill:#39B54A;stroke:#39B54A;stroke-width:0.25;stroke-miterlimit:10;}
	.st3{fill:none;stroke:#808080;stroke-width:12;stroke-miterlimit:10;}
	.st4{fill:#808080;stroke:#808080;stroke-width:0.25;stroke-miterlimit:10;}
</style>
<g id="Vrstva_2" class="st0">
	<path class="st1" d="M17.16,4.74l42.11,42.11c3.42,3.42,3.42,9,0,12.42l0,0c-3.42,3.42-9,3.42-12.42,0L4.74,17.16
		c-3.42-3.42-3.42-9,0-12.42l0,0C8.15,1.32,13.74,1.32,17.16,4.74z"/>
	<path class="st1" d="M4.74,46.84L46.84,4.74c3.42-3.42,9-3.42,12.42,0l0,0c3.42,3.42,3.42,9,0,12.42L17.16,59.26
		c-3.42,3.42-9,3.42-12.42,0l0,0C1.32,55.85,1.32,50.26,4.74,46.84z"/>
</g>
<g id="Vrstva_3" class="st0">
	<path class="st2" d="M23.22,54.84V9.16c0-4.83,3.95-8.78,8.78-8.78h0c4.83,0,8.78,3.95,8.78,8.78v45.68c0,4.83-3.95,8.78-8.78,8.78
		h0C27.17,63.62,23.22,59.67,23.22,54.84z"/>
	<path class="st2" d="M54.84,40.78H9.16c-4.83,0-8.78-3.95-8.78-8.78v0c0-4.83,3.95-8.78,8.78-8.78h45.68
		c4.83,0,8.78,3.95,8.78,8.78v0C63.62,36.83,59.67,40.78,54.84,40.78z"/>
</g>
<g id="Vrstva_4">
	<circle class="st3" cx="32" cy="32" r="17.42"/>
	<path class="st4" d="M56.61,38.56h-2.64c-3.61,0-6.56-2.95-6.56-6.56v0c0-3.61,2.95-6.56,6.56-6.56h2.64
		c3.61,0,6.56,2.95,6.56,6.56v0C63.17,35.61,60.22,38.56,56.61,38.56z"/>
	<path class="st4" d="M10.33,39.56H7.7c-3.61,0-6.56-2.95-6.56-6.56v0c0-3.61,2.95-6.56,6.56-6.56h2.64c3.61,0,6.56,2.95,6.56,6.56
		v0C16.89,36.61,13.94,39.56,10.33,39.56z"/>
	<path class="st4" d="M38.56,7.33v2.64c0,3.61-2.95,6.56-6.56,6.56h0c-3.61,0-6.56-2.95-6.56-6.56V7.33c0-3.61,2.95-6.56,6.56-6.56
		h0C35.61,0.77,38.56,3.72,38.56,7.33z"/>
	<path class="st4" d="M25.44,56.63v-2.64c0-3.61,2.95-6.56,6.56-6.56h0c3.61,0,6.56,2.95,6.56,6.56v2.64c0,3.61-2.95,6.56-6.56,6.56
		h0C28.39,63.19,25.44,60.24,25.44,56.63z"/>
	<path class="st4" d="M45.05,54.33l-1.87-1.87c-2.55-2.55-2.55-6.72,0-9.28l0,0c2.55-2.55,6.72-2.55,9.28,0l1.87,1.87
		c2.55,2.55,2.55,6.72,0,9.28l0,0C51.78,56.88,47.6,56.88,45.05,54.33z"/>
	<path class="st4" d="M11.24,20.15l-1.87-1.87c-2.55-2.55-2.55-6.72,0-9.28l0,0c2.55-2.55,6.72-2.55,9.28,0l1.87,1.87
		c2.55,2.55,2.55,6.72,0,9.28l0,0C17.97,22.7,13.79,22.7,11.24,20.15z"/>
	<path class="st4" d="M43.19,10.88l1.87-1.87c2.55-2.55,6.72-2.55,9.28,0l0,0c2.55,2.55,2.55,6.72,0,9.28l-1.87,1.87
		c-2.55,2.55-6.72,2.55-9.28,0l0,0C40.63,17.6,40.63,13.43,43.19,10.88z"/>
	<path class="st4" d="M9.68,45.41l1.87-1.87c2.55-2.55,6.72-2.55,9.28,0l0,0c2.55,2.55,2.55,6.72,0,9.28l-1.87,1.87
		c-2.55,2.55-6.72,2.55-9.28,0l0,0C7.13,52.14,7.13,47.96,9.68,45.41z"/>
</g>
</svg>
