<?xml version="1.0" encoding="utf-8"?>
<!-- Generator: Adobe Illustrator 23.0.1, SVG Export Plug-In . SVG Version: 6.00 Build 0)  -->
<svg version="1.1" xmlns="http://www.w3.org/2000/svg" xmlns:xlink="http://www.w3.org/1999/xlink" x="0px" y="0px"
	 viewBox="0 0 64 64" style="enable-background:new 0 0 64 64;" xml:space="preserve">
<style type="text/css">
	.st0{display:none;}
	.st1{display:inline;fill:#C1272D;stroke:#C1272D;stroke-width:0.25;stroke-miterlimit:10;}
	.st2{display:inline;fill:#39B54A;stroke:#39B54A;stroke-width:0.25;stroke-miterlimit:10;}
	.st3{display:inline;fill:none;stroke:#808080;stroke-width:12;stroke-miterlimit:10;}
	.st4{display:inline;fill:#808080;stroke:#808080;stroke-width:0.25;stroke-miterlimit:10;}
	.st5{fill:#C1272D;}
	.st6{fill:#FBB03B;}
	.st7{fill:#C7B299;}
	.st8{fill:#FFBC64;}
	.st9{fill:#1A1A1A;}
</style>
<g id="Vrstva_2" class="st0">
	<path class="st1" d="M17.16,4.74l42.11,42.11c3.42,3.42,3.42,9,0,12.42l0,0c-3.42,3.42-9,3.42-12.42,0L4.74,17.16
		c-3.42-3.42-3.42-9,0-12.42l0,0C8.15,1.32,13.74,1.32,17.16,4.74z"/>
	<path class="st1" d="M4.74,46.84L46.84,4.74c3.42-3.42,9-3.42,12.42,0l0,0c3.42,3.42,3.42,9,0,12.42L17.16,59.26
		c-3.42,3.42-9,3.42-12.42,0l0,0C1.32,55.85,1.32,50.26,4.74,46.84z"/>
</g>
<g id="Vrstva_3" class="st0">
	<path class="st2" d="M23.22,54.84V9.16c0-4.83,3.95-8.78,8.78-8.78h0c4.83,0,8.78,3.95,8.78,8.78v45.68c0,4.83-3.95,8.78-8.78,8.78
		h0C27.17,63.62,23.22,59.67,23.22,54.84z"/>
	<path class="st2" d="M54.84,40.78H9.16c-4.83,0-8.78-3.95-8.78-8.78v0c0-4.83,3.95-8.78,8.78-8.78h45.68
		c4.83,0,8.78,3.95,8.78,8.78v0C63.62,36.83,59.67,40.78,54.84,40.78z"/>
</g>
<g id="Vrstva_4" class="st0">
	<circle class="st3" cx="32" cy="32" r="17.42"/>
	<path class="st4" d="M56.61,38.56h-2.64c-3.61,0-6.56-2.95-6.56-6.56v0c0-3.61,2.95-6.56,6.56-6.56h2.64
		c3.61,0,6.56,2.95,6.56,6.56v0C63.17,35.61,60.22,38.56,56.61,38.56z"/>
	<path class="st4" d="M10.33,39.56H7.7c-3.61,0-6.56-2.95-6.56-6.56v0c0-3.61,2.95-6.56,6.56-6.56h2.64c3.61,0,6.56,2.95,6.56,6.56
		v0C16.89,36.61,13.94,39.56,10.33,39.56z"/>
	<path class="st4" d="M38.56,7.33v2.64c0,3.61-2.95,6.56-6.56,6.56h0c-3.61,0-6.56-2.95-6.56-6.56V7.33c0-3.61,2.95-6.56,6.56-6.56
		h0C35.61,0.77,38.56,3.72,38.56,7.33z"/>
	<path class="st4" d="M25.44,56.63v-2.64c0-3.61,2.95-6.56,6.56-6.56h0c3.61,0,6.56,2.95,6.56,6.56v2.64c0,3.61-2.95,6.56-6.56,6.56
		h0C28.39,63.19,25.44,60.24,25.44,56.63z"/>
	<path class="st4" d="M45.05,54.33l-1.87-1.87c-2.55-2.55-2.55-6.72,0-9.28l0,0c2.55-2.55,6.72-2.55,9.28,0l1.87,1.87
		c2.55,2.55,2.55,6.72,0,9.28l0,0C51.78,56.88,47.6,56.88,45.05,54.33z"/>
	<path class="st4" d="M11.24,20.15l-1.87-1.87c-2.55-2.55-2.55-6.72,0-9.28l0,0c2.55-2.55,6.72-2.55,9.28,0l1.87,1.87
		c2.55,2.55,2.55,6.72,0,9.28l0,0C17.97,22.7,13.79,22.7,11.24,20.15z"/>
	<path class="st4" d="M43.19,10.88l1.87-1.87c2.55-2.55,6.72-2.55,9.28,0l0,0c2.55,2.55,2.55,6.72,0,9.28l-1.87,1.87
		c-2.55,2.55-6.72,2.55-9.28,0l0,0C40.63,17.6,40.63,13.43,43.19,10.88z"/>
	<path class="st4" d="M9.68,45.41l1.87-1.87c2.55-2.55,6.72-2.55,9.28,0l0,0c2.55,2.55,2.55,6.72,0,9.28l-1.87,1.87
		c-2.55,2.55-6.72,2.55-9.28,0l0,0C7.13,52.14,7.13,47.96,9.68,45.41z"/>
</g>
<g id="Vrstva_5">
	<path class="st5" d="M61.04,5.96l-3.21-3.21c-2.8-2.8-7.38-2.8-10.18,0l-0.13,0.13c-2.8,2.8-2.8,7.38,0,10.18l3.21,3.21
		c2.8,2.8,7.38,2.8,10.18,0l0.13-0.13C63.84,13.34,63.84,8.76,61.04,5.96z"/>
	
		<rect x="7.68" y="19.72" transform="matrix(0.7071 -0.7071 0.7071 0.7071 -10.4991 33.0184)" class="st6" width="53.85" height="18.93"/>
	<path class="st7" d="M8.88,41.53C6.48,48.44,4.09,55.35,1.7,62.27c6.85-2.45,13.7-4.9,20.56-7.35
		C17.8,50.45,13.34,45.99,8.88,41.53z"/>
	
		<rect x="7.71" y="23.95" transform="matrix(0.7071 -0.7071 0.7071 0.7071 -10.4885 33.0228)" class="st8" width="53.82" height="10.44"/>
	<path class="st9" d="M6.56,48.23c-1.62,4.68-3.24,9.35-4.85,14.03c4.64-1.66,9.27-3.32,13.91-4.97
		C12.59,54.27,9.58,51.25,6.56,48.23z"/>
</g>
</svg>
