<svg xmlns="http://www.w3.org/2000/svg" viewBox="0 0 61.44 61.62"><defs><style>.cls-1{fill:#c1272d;}.cls-2{fill:#fbb03b;}.cls-3{fill:#c7b299;}.cls-4{fill:#ffbc64;}.cls-5{fill:#1a1a1a;}</style></defs><title>pencil</title><g id="Vrstva_2" data-name="Vrstva 2"><g id="pencil"><path class="cls-1" d="M59.34,5.31,56.13,2.1A7.22,7.22,0,0,0,46,2.1l-.13.13a7.22,7.22,0,0,0,0,10.18L49,15.62a7.22,7.22,0,0,0,10.18,0l.13-.13A7.22,7.22,0,0,0,59.34,5.31Z"/><rect class="cls-2" x="5.98" y="19.07" width="53.85" height="18.93" transform="translate(-10.54 31.63) rotate(-45)"/><path class="cls-3" d="M7.18,40.88Q3.58,51.25,0,61.62l20.56-7.35Z"/><rect class="cls-4" x="6.01" y="23.3" width="53.82" height="10.44" transform="translate(-10.52 31.63) rotate(-45)"/><path class="cls-5" d="M4.86,47.58q-2.43,7-4.85,14l13.91-5Z"/></g></g></svg>