<?xml version="1.0" encoding="utf-8"?>
<!-- Generator: Adobe Illustrator 23.0.1, SVG Export Plug-In . SVG Version: 6.00 Build 0)  -->
<svg version="1.1" xmlns="http://www.w3.org/2000/svg" xmlns:xlink="http://www.w3.org/1999/xlink" x="0px" y="0px"
	 viewBox="0 0 64 64" style="enable-background:new 0 0 64 64;" xml:space="preserve">
<style type="text/css">
	.st0{display:none;}
	.st1{display:inline;fill:#C1272D;stroke:#C1272D;stroke-width:0.25;stroke-miterlimit:10;}
	.st2{fill:#39B54A;stroke:#39B54A;stroke-width:0.25;stroke-miterlimit:10;}
</style>
<g id="Vrstva_2" class="st0">
	<path class="st1" d="M15.45,3.03l45.51,45.51c3.42,3.42,3.42,9,0,12.42l0,0c-3.42,3.42-9,3.42-12.42,0L3.03,15.45
		c-3.42-3.42-3.42-9,0-12.42l0,0C6.45-0.38,12.04-0.38,15.45,3.03z"/>
	<path class="st1" d="M3.03,48.55L48.55,3.03c3.42-3.42,9-3.42,12.42,0l0,0c3.42,3.42,3.42,9,0,12.42L15.45,60.97
		c-3.42,3.42-9,3.42-12.42,0l0,0C-0.38,57.55-0.38,51.96,3.03,48.55z"/>
</g>
<g id="Vrstva_3">
	<path class="st2" d="M23.22,54.84V9.16c0-4.83,3.95-8.78,8.78-8.78h0c4.83,0,8.78,3.95,8.78,8.78v45.68c0,4.83-3.95,8.78-8.78,8.78
		h0C27.17,63.62,23.22,59.67,23.22,54.84z"/>
	<path class="st2" d="M54.84,40.78H9.16c-4.83,0-8.78-3.95-8.78-8.78v0c0-4.83,3.95-8.78,8.78-8.78h45.68
		c4.83,0,8.78,3.95,8.78,8.78v0C63.62,36.83,59.67,40.78,54.84,40.78z"/>
</g>
</svg>
