<?xml version="1.0" encoding="UTF-8" standalone="no"?>
<!-- Created with Inkscape (http://www.inkscape.org/) -->

<svg
   width="256"
   height="256"
   viewBox="0 0 256 256"
   version="1.1"
   id="svg323"
   inkscape:version="1.2 (dc2aedaf03, 2022-05-15)"
   sodipodi:docname="plus-black.svg"
   xmlns:inkscape="http://www.inkscape.org/namespaces/inkscape"
   xmlns:sodipodi="http://sodipodi.sourceforge.net/DTD/sodipodi-0.dtd"
   xmlns="http://www.w3.org/2000/svg"
   xmlns:svg="http://www.w3.org/2000/svg">
  <sodipodi:namedview
     id="namedview325"
     pagecolor="#ffffff"
     bordercolor="#000000"
     borderopacity="0.25"
     inkscape:showpageshadow="2"
     inkscape:pageopacity="0.0"
     inkscape:pagecheckerboard="0"
     inkscape:deskcolor="#d1d1d1"
     inkscape:document-units="mm"
     showgrid="false"
     inkscape:zoom="2.0510461"
     inkscape:cx="213.062"
     inkscape:cy="159.67461"
     inkscape:window-width="1920"
     inkscape:window-height="1001"
     inkscape:window-x="-9"
     inkscape:window-y="-9"
     inkscape:window-maximized="1"
     inkscape:current-layer="layer1" />
  <defs
     id="defs320" />
  <g
     inkscape:label="Vrstva 1"
     inkscape:groupmode="layer"
     id="layer1">
    <path
       class="cls-3"
       d="M 242.64453,89.032453 H 166.95547 V 13.343396 A 13.403774,13.403774 0 0 0 153.6,0 H 102.4 A 13.403774,13.403774 0 0 0 89.044528,13.355472 V 89.032453 H 13.355472 A 13.403774,13.403774 0 0 0 0,102.38792 v 51.2 a 13.391698,13.391698 0 0 0 13.355472,13.35548 h 75.689056 v 75.68905 A 13.391698,13.391698 0 0 0 102.4,256 h 51.2 a 13.391698,13.391698 0 0 0 13.35547,-13.35547 V 166.9434 h 75.68906 A 13.391698,13.391698 0 0 0 256,153.58792 v -51.2 A 13.403774,13.403774 0 0 0 242.64453,89.032453 Z"
       id="path31"
       style="fill:#000000;stroke-width:1.20755;fill-opacity:1" />
  </g>
</svg>
