<?xml version="1.0" encoding="UTF-8" standalone="no"?>
<!-- Created with Inkscape (http://www.inkscape.org/) -->

<svg
   width="24"
   height="24"
   viewBox="0 0 6.3499999 6.35"
   version="1.1"
   id="svg5"
   inkscape:version="1.3.2 (091e20e, 2023-11-25, custom)"
   sodipodi:docname="report_f_2.svg"
   xmlns:inkscape="http://www.inkscape.org/namespaces/inkscape"
   xmlns:sodipodi="http://sodipodi.sourceforge.net/DTD/sodipodi-0.dtd"
   xmlns="http://www.w3.org/2000/svg"
   xmlns:svg="http://www.w3.org/2000/svg">
  <sodipodi:namedview
     id="namedview7"
     pagecolor="#ffffff"
     bordercolor="#000000"
     borderopacity="0.25"
     inkscape:showpageshadow="2"
     inkscape:pageopacity="0.0"
     inkscape:pagecheckerboard="false"
     inkscape:deskcolor="#d1d1d1"
     inkscape:document-units="px"
     showgrid="true"
     inkscape:zoom="32.816738"
     inkscape:cx="14.474321"
     inkscape:cy="11.747054"
     inkscape:window-width="1920"
     inkscape:window-height="1001"
     inkscape:window-x="-9"
     inkscape:window-y="-9"
     inkscape:window-maximized="1"
     inkscape:current-layer="layer1">
    <inkscape:grid
       type="xygrid"
       id="grid132"
       empspacing="4"
       dotted="false"
       originx="0"
       originy="0"
       spacingy="0.26458333"
       spacingx="0.26458333"
       units="px"
       visible="true" />
  </sodipodi:namedview>
  <defs
     id="defs2">
    <inkscape:path-effect
       effect="fillet_chamfer"
       id="path-effect1"
       is_visible="true"
       lpeversion="1"
       nodesatellites_param="F,0,1,1,0,0.26481133,0,1 @ F,0,1,1,0,0.26481133,0,1 @ F,0,1,1,0,0.26481133,0,1 @ F,0,1,1,0,0.26481133,0,1"
       radius="0"
       unit="px"
       method="auto"
       mode="F"
       chamfer_steps="1"
       flexible="false"
       use_knot_distance="true"
       apply_no_radius="true"
       apply_with_radius="true"
       only_selected="false"
       hide_knots="false" />
  </defs>
  <g
     inkscape:label="Vrstva 1"
     inkscape:groupmode="layer"
     id="layer1">
    <path
       id="path1"
       style="fill:#000000;fill-opacity:1;stroke:#000000;stroke-width:0.264583;stroke-linecap:round;stroke-linejoin:round;stroke-dasharray:none"
       d="M 3.175,0.52916666 C 1.7137465,0.52916664 0.52916647,1.7137466 0.52916666,3.175 0.52916649,4.6362533 1.7137465,5.8208333 3.175,5.8208333 4.6362535,5.8208333 5.8208335,4.6362533 5.8208333,3.175 5.8208335,1.7137467 4.6362535,0.52916666 3.175,0.52916666 Z m 5.167e-4,0.52968344 c 0.2890546,1e-7 0.5286499,0.239863 0.5286499,0.5291667 l -1e-7,1.586983 c 0,0.2893037 -0.2395953,0.5291667 -0.5286499,0.5291667 C 2.8864619,3.7041666 2.64635,3.4643036 2.64635,3.1749998 l 10e-8,-1.586983 c 0,-0.2893039 0.240112,-0.5291666 0.5291666,-0.5291667 z m 5.168e-4,3.1734497 c 0.2910754,0 0.5312337,0.2422252 0.5312337,0.5333007 0,0.2910756 -0.2401583,0.5333008 -0.5312337,0.5333008 -0.2910756,1e-7 -0.5333008,-0.2422252 -0.5333008,-0.5333008 0,-0.2910755 0.2422252,-0.5333008 0.5333008,-0.5333007 z"
       sodipodi:nodetypes="sssssssssssssssss" />
  </g>
</svg>
