<?xml version="1.0" standalone="no"?>
<!DOCTYPE svg PUBLIC "-//W3C//DTD SVG 20010904//EN"
 "http://www.w3.org/TR/2001/REC-SVG-20010904/DTD/svg10.dtd">
<svg version="1.0" xmlns="http://www.w3.org/2000/svg"
 width="1018.000000pt" height="1018.000000pt" viewBox="0 0 1018.000000 1018.000000"
 preserveAspectRatio="xMidYMid meet">
<metadata>
Created by potrace 1.11, written by Peter Selinger 2001-2013
</metadata>
<g transform="translate(0.000000,1018.000000) scale(0.100000,-0.100000)"
fill="#000000" stroke="none">
<path d="M444 10149 c-1 -16 2 -27 6 -24 4 3 10 -14 14 -36 7 -43 122 -396
135 -414 4 -5 16 -36 26 -67 11 -32 23 -58 27 -58 4 0 7 -3 6 -7 -1 -9 7 -32
30 -83 9 -19 17 -41 18 -47 7 -42 347 -690 374 -713 3 -3 11 -16 18 -30 14
-29 11 -24 132 -208 52 -79 100 -151 105 -160 6 -9 12 -19 15 -22 3 -3 14 -18
24 -35 11 -16 23 -34 28 -40 5 -5 46 -60 91 -121 45 -61 96 -128 112 -149 43
-54 178 -219 184 -225 3 -3 24 -27 46 -54 22 -28 53 -64 70 -81 16 -18 59 -65
95 -106 85 -96 440 -452 554 -554 49 -44 100 -91 115 -104 14 -13 48 -42 75
-65 27 -22 54 -46 60 -51 6 -6 49 -42 96 -80 47 -38 87 -72 90 -75 3 -3 21
-17 42 -32 20 -15 42 -33 50 -40 7 -7 40 -33 73 -58 33 -25 62 -47 65 -50 11
-12 271 -200 276 -200 3 0 12 -6 19 -12 33 -30 49 -40 166 -114 98 -60 384
-214 409 -220 3 0 18 -6 33 -12 16 -7 33 -12 38 -12 5 0 9 -4 9 -10 0 -5 3 -9
8 -8 4 2 27 -6 52 -16 25 -11 47 -20 50 -21 3 -1 19 -7 35 -14 73 -31 510
-189 540 -195 20 -4 191 -57 210 -65 11 -5 70 -23 130 -41 61 -17 121 -36 135
-41 14 -5 34 -11 45 -13 11 -2 40 -11 65 -19 25 -9 151 -48 280 -87 129 -39
255 -79 280 -87 25 -8 54 -17 65 -19 28 -5 326 -104 347 -115 10 -5 27 -9 37
-9 11 0 23 -4 26 -10 3 -5 16 -10 29 -10 12 0 26 -4 32 -8 5 -5 38 -19 74 -32
88 -31 234 -88 295 -115 28 -12 70 -31 95 -42 140 -61 188 -84 315 -149 160
-81 239 -124 293 -157 20 -13 42 -26 47 -28 15 -6 159 -92 165 -99 3 -3 17
-11 33 -19 15 -8 27 -18 27 -23 0 -4 5 -8 11 -8 9 0 126 -75 259 -167 78 -54
216 -158 222 -167 5 -7 8 -7 8 -1 0 6 3 6 8 0 4 -6 47 -42 97 -80 107 -83 119
-93 155 -125 15 -14 38 -32 50 -40 12 -8 39 -31 60 -50 21 -19 66 -60 100 -90
34 -30 80 -72 102 -94 41 -40 53 -40 62 4 3 14 19 77 36 140 16 63 32 129 35
145 3 17 8 37 10 45 2 8 7 29 10 45 2 17 7 40 10 53 3 12 7 32 10 45 18 84 21
98 29 148 3 19 8 51 11 73 4 21 9 48 11 60 2 11 7 37 10 56 3 19 7 46 10 60 3
14 7 41 9 60 6 58 15 123 21 161 3 19 7 57 9 85 2 27 4 49 5 49 3 0 19 181 25
280 10 151 14 195 20 205 3 5 1 10 -5 10 -6 0 -8 5 -4 12 8 13 12 558 4 558
-3 0 -5 26 -6 58 -1 65 -12 219 -20 272 -2 19 -7 58 -9 85 -2 28 -6 61 -9 75
-8 42 -19 123 -20 153 -1 15 -3 27 -6 27 -3 0 -6 8 -7 18 -1 22 -12 84 -25
142 -5 25 -12 54 -14 66 -3 17 -27 112 -49 197 -3 9 -7 25 -9 35 -6 27 -95
295 -106 317 -5 11 -23 54 -41 95 -17 41 -37 90 -45 107 -8 18 -14 36 -13 39
0 4 -3 10 -8 13 -7 5 -29 47 -103 191 -9 16 -21 38 -27 47 -7 10 -44 66 -82
124 -68 105 -90 135 -123 171 -10 10 -15 18 -12 18 3 0 -1 6 -8 14 -7 7 -31
35 -53 61 -57 68 -240 253 -304 305 -29 25 -70 60 -90 77 -20 18 -39 33 -42
33 -4 0 -22 13 -40 30 -19 16 -40 30 -46 30 -7 0 -13 4 -13 9 0 10 -294 211
-309 211 -6 0 -11 5 -11 11 0 5 -4 8 -9 5 -5 -4 -11 -2 -13 2 -3 8 -52 38
-168 105 -184 105 -602 297 -681 312 -10 2 -25 7 -32 12 -6 4 -19 8 -27 10 -8
1 -23 6 -35 11 -24 12 -169 62 -178 61 -1 0 -29 10 -62 21 -33 12 -69 23 -80
24 -11 2 -67 17 -125 34 -96 27 -200 54 -225 58 -5 1 -12 3 -15 4 -3 1 -13 3
-24 5 -10 2 -41 9 -70 16 -28 7 -60 14 -71 15 -11 1 -20 3 -20 4 0 2 -21 7
-65 14 -19 4 -48 9 -65 13 -16 3 -39 7 -50 8 -11 1 -27 5 -35 8 -8 3 -51 11
-95 17 -44 7 -91 14 -105 17 -14 3 -43 7 -65 9 -80 10 -100 12 -100 14 0 5
-78 16 -175 24 -25 3 -60 7 -79 11 -18 3 -59 8 -90 11 -31 3 -69 8 -86 10 -16
2 -53 6 -82 9 -28 2 -69 7 -90 9 -50 7 -136 16 -193 20 -25 3 -70 7 -100 10
-60 6 -121 12 -245 21 -44 3 -95 8 -113 10 -17 3 -69 7 -115 10 -45 3 -102 7
-127 10 -25 2 -79 7 -120 10 -41 3 -95 8 -120 10 -25 2 -79 7 -120 10 -41 3
-95 8 -120 10 -25 3 -74 7 -110 10 -144 13 -167 15 -210 20 -25 2 -72 7 -105
9 -67 6 -177 16 -215 21 -53 6 -177 18 -215 21 -22 1 -40 3 -40 4 0 2 -45 7
-120 15 -33 3 -79 8 -102 10 -24 3 -62 7 -85 9 -24 2 -63 7 -88 10 -25 4 -65
9 -90 12 -25 2 -56 6 -70 8 -14 2 -52 7 -84 10 -62 7 -101 12 -163 22 -21 3
-51 7 -68 9 -36 4 -105 13 -160 21 -22 4 -53 8 -70 9 -72 7 -141 17 -155 21
-8 3 -37 8 -65 11 -27 3 -53 7 -56 9 -3 2 -33 6 -65 9 -59 6 -86 10 -134 19
-14 3 -43 8 -65 11 -22 3 -47 7 -55 10 -8 2 -37 6 -64 10 -27 3 -52 8 -56 10
-3 2 -24 6 -46 9 -38 4 -39 3 -40 -25z"/>
<path d="M432 10093 c1 -23 -11 -208 -17 -253 -3 -19 -7 -69 -10 -110 -3 -41
-7 -95 -10 -120 -3 -25 -7 -83 -10 -130 -3 -47 -7 -101 -9 -120 -2 -19 -7 -73
-11 -120 -3 -47 -8 -103 -11 -126 -2 -22 -6 -67 -9 -100 -5 -64 -13 -167 -20
-254 -3 -30 -7 -82 -10 -115 -3 -33 -8 -85 -10 -115 -13 -190 -25 -312 -33
-324 -3 -5 1 -6 8 -1 9 5 11 4 6 -4 -8 -12 -18 -100 -20 -163 -1 -21 -3 -38
-6 -38 -3 0 -6 -21 -6 -48 -2 -57 -12 -197 -14 -197 -1 0 -3 -22 -5 -50 -2
-49 -13 -176 -20 -245 -3 -35 -14 -157 -20 -240 -3 -25 -7 -79 -11 -120 -3
-41 -8 -95 -10 -120 -6 -82 -15 -194 -19 -230 -2 -19 -6 -73 -10 -120 -3 -47
-8 -101 -10 -120 -25 -225 -25 -1139 0 -1180 2 -3 6 -43 10 -90 4 -47 9 -94
11 -105 2 -11 6 -36 9 -55 8 -65 28 -181 39 -231 3 -14 8 -39 10 -55 2 -16 6
-36 9 -44 4 -8 8 -28 11 -45 2 -16 5 -30 6 -30 1 0 3 -8 5 -19 9 -48 28 -123
35 -136 5 -8 10 -28 13 -45 8 -46 65 -218 113 -341 24 -61 44 -116 44 -123 0
-6 5 -11 10 -11 6 0 10 -6 10 -14 0 -8 18 -53 41 -100 22 -47 39 -88 39 -92
-1 -4 2 -10 7 -13 4 -3 21 -31 37 -61 48 -93 156 -282 166 -290 3 -3 36 -52
74 -109 215 -323 588 -731 910 -996 27 -22 56 -47 64 -55 12 -12 69 -58 202
-163 9 -7 42 -32 75 -57 33 -24 66 -50 75 -57 43 -37 446 -307 460 -308 3 0
16 -8 30 -16 108 -68 428 -230 465 -236 11 -2 22 -8 23 -13 2 -6 11 -10 21
-10 9 0 21 -4 26 -8 6 -5 33 -17 60 -27 28 -9 64 -24 80 -31 38 -17 326 -112
357 -118 12 -3 24 -5 26 -7 1 -1 7 -3 12 -4 6 -1 13 -4 18 -5 4 -1 10 -2 14
-1 4 0 19 -4 33 -9 14 -5 36 -12 48 -14 12 -3 65 -15 117 -26 52 -12 102 -23
111 -25 24 -5 89 -15 129 -21 19 -2 46 -6 60 -9 23 -5 71 -11 140 -20 84 -10
156 -16 238 -20 51 -2 96 -6 100 -8 10 -6 465 0 547 7 39 3 99 9 135 11 36 3
76 8 90 10 35 5 117 15 165 21 22 2 50 6 62 8 11 3 43 8 70 12 26 3 57 9 68
11 11 2 34 7 50 9 17 3 62 12 100 21 39 8 81 17 95 19 14 3 50 12 80 20 30 8
66 17 80 19 14 2 52 11 85 21 33 9 65 17 70 18 68 15 420 129 480 155 54 24
201 76 208 73 4 -1 7 2 7 8 0 6 3 9 8 8 8 -1 43 12 157 62 17 8 33 13 38 12 4
-1 7 2 7 8 0 6 3 9 8 8 10 -2 30 7 202 90 85 42 157 76 160 77 3 0 14 6 25 12
98 55 173 95 188 100 9 3 17 9 17 14 0 5 7 9 15 9 8 0 24 8 35 17 11 10 23 17
26 15 3 -2 20 7 37 20 18 13 44 30 60 37 15 8 27 18 27 23 0 4 6 8 13 8 8 0
32 13 53 28 22 16 46 31 54 34 9 3 40 -21 80 -62 93 -95 113 -119 174 -212 31
-46 59 -88 63 -93 5 -6 9 -17 11 -25 2 -8 10 -22 18 -31 8 -8 14 -20 14 -25 0
-6 11 -32 24 -60 23 -47 70 -183 82 -234 21 -90 36 -183 37 -232 1 -32 5 -58
9 -58 8 0 2 -360 -7 -415 -33 -198 -114 -410 -187 -489 -10 -11 -17 -21 -15
-22 3 -3 194 -20 324 -29 40 -2 96 -7 125 -10 29 -3 85 -8 123 -10 130 -9 210
-16 245 -20 19 -2 77 -6 128 -9 50 -3 116 -8 144 -11 85 -8 178 -16 243 -20
33 -3 88 -7 123 -10 69 -6 66 -11 48 65 -3 14 -8 36 -11 50 -5 29 -39 168 -55
225 -6 22 -13 51 -16 65 -2 14 -8 36 -13 50 -5 14 -15 48 -22 75 -6 28 -15 55
-18 60 -3 6 -6 15 -7 21 -3 21 -46 159 -56 179 -5 12 -10 28 -12 38 -1 9 -5
20 -9 23 -4 4 -7 17 -7 29 0 11 -4 25 -8 30 -7 8 -62 152 -68 175 0 3 -4 14
-9 25 -4 11 -21 54 -37 95 -16 41 -35 89 -43 105 -7 17 -19 46 -28 65 -8 19
-24 55 -35 80 -11 25 -23 55 -26 68 -4 12 -11 22 -15 22 -4 0 -8 10 -8 22 -1
13 -7 24 -13 26 -5 2 -10 9 -10 15 0 11 -105 222 -168 336 -19 35 -40 74 -46
85 -30 57 -162 271 -168 274 -5 2 -8 8 -8 14 0 5 -11 24 -25 42 -14 18 -25 38
-25 44 0 6 -4 12 -8 14 -5 2 -28 32 -52 68 -40 59 -92 131 -123 170 -7 8 -28
35 -47 60 -175 225 -426 487 -650 680 -14 12 -36 31 -50 43 -14 12 -50 42 -80
67 -30 25 -66 55 -80 67 -14 13 -28 23 -32 23 -4 0 -18 10 -32 23 -14 12 -50
40 -82 62 -31 22 -62 45 -68 51 -6 5 -18 13 -26 17 -16 8 -167 110 -187 127
-7 5 -14 10 -15 10 -2 0 -64 36 -138 80 -74 44 -140 80 -147 80 -7 0 -13 3
-13 8 0 4 -25 18 -55 32 -30 14 -55 28 -55 33 0 4 -5 7 -10 7 -6 0 -57 22
-113 49 -114 55 -284 131 -292 131 -3 0 -24 9 -48 19 -55 24 -164 67 -252 98
-38 13 -79 28 -90 33 -22 9 -55 21 -70 26 -5 2 -118 40 -250 84 -132 45 -247
83 -255 85 -8 2 -15 4 -15 5 0 1 -7 3 -15 5 -15 4 -65 20 -105 35 -51 20 -221
70 -226 68 -3 -2 -12 2 -20 8 -13 10 -48 22 -89 30 -8 2 -23 7 -35 13 -11 5
-49 20 -85 31 -36 12 -74 26 -85 30 -11 4 -38 14 -60 23 -146 54 -294 111
-320 122 -16 6 -61 25 -100 40 -38 16 -74 32 -79 37 -6 4 -18 8 -28 8 -10 0
-18 5 -18 10 0 6 -8 10 -18 10 -10 0 -22 3 -26 8 -4 4 -11 7 -14 8 -15 1 -67
29 -74 39 -4 5 -8 7 -8 2 0 -4 -12 1 -27 10 -15 10 -30 18 -33 17 -6 -1 -152
70 -245 121 -38 21 -92 50 -120 65 -97 53 -151 84 -215 124 -36 23 -77 48 -92
55 -16 8 -28 18 -28 23 0 4 -4 8 -9 8 -13 0 -195 121 -199 132 -2 4 -10 8 -18
8 -8 0 -14 4 -14 8 0 5 -12 15 -27 23 -16 8 -34 20 -42 27 -8 8 -30 24 -50 37
-20 12 -46 32 -58 44 -12 12 -25 21 -28 21 -5 0 -192 147 -221 173 -7 7 -25
22 -41 34 -15 12 -38 30 -49 40 -12 10 -45 38 -74 63 -29 25 -62 53 -73 63
-233 201 -632 604 -823 832 -32 39 -63 75 -69 82 -5 6 -26 30 -45 54 -19 23
-41 48 -47 55 -7 7 -13 15 -13 18 0 5 -18 30 -45 60 -18 20 -180 240 -200 271
-10 16 -27 38 -37 49 -10 11 -18 25 -18 32 0 7 -3 14 -7 16 -9 3 -53 64 -53
72 0 3 -8 15 -17 26 -10 11 -16 23 -15 27 2 3 -1 9 -7 12 -13 8 -192 306 -223
370 -12 25 -24 48 -28 51 -13 11 -230 463 -230 479 0 4 -9 26 -21 50 -27 56
-139 357 -139 374 0 7 -5 18 -12 25 -7 7 -9 12 -5 12 6 0 1 16 -29 95 -4 11
-6 25 -5 32 1 6 -3 14 -8 18 -6 3 -8 12 -5 19 3 8 1 17 -5 21 -6 3 -11 17 -11
29 0 13 -7 40 -15 60 -8 20 -15 38 -15 41 2 12 -12 82 -21 105 -5 14 -11 42
-14 64 -2 21 -7 46 -9 55 -3 9 -7 27 -10 41 -2 14 -7 41 -11 60 -6 36 -9 52
-20 158 -4 34 -11 62 -16 62 -4 0 -7 -8 -7 -17z"/>
</g>
</svg>
