<svg xmlns="http://www.w3.org/2000/svg" viewBox="0 0 128 128"><defs><style>.cls-1{fill:#fff;}</style></defs><title>settings</title><g id="Vrstva_2" data-name="Vrstva 2"><g id="settings"><path class="cls-1" d="M64,6a8,8,0,0,1,8,8V24.6L76.09,26a37.58,37.58,0,0,1,6,2.58L86,30.69l3.16-3.16L93.7,23A8,8,0,0,1,105,34.3L99.8,39.52l-3,2.94,1.73,3.79a38.1,38.1,0,0,1,2,5.38L101.79,56H114a8,8,0,0,1,0,16H100.89L99.4,75.82a38.57,38.57,0,0,1-2,4.24L95.31,84l3.16,3.16L105,93.7A8,8,0,0,1,93.7,105L86.48,97.8l-2.94-3-3.79,1.73A37,37,0,0,1,76.09,98L72,99.4V114a8,8,0,0,1-16,0V99.4L51.91,98a37,37,0,0,1-3.66-1.44l-3.79-1.73-2.94,3L34.3,105A8,8,0,0,1,23,93.7l6.54-6.54L32.69,84l-2.13-3.94a38.57,38.57,0,0,1-2-4.24L27.11,72H14a8,8,0,0,1,0-16H26.21l1.23-4.37a38.1,38.1,0,0,1,2-5.38l1.73-3.79L28.2,39.52,23,34.3A8,8,0,0,1,34.3,23l4.54,4.54L42,30.69l3.94-2.13a37.58,37.58,0,0,1,6-2.58L56,24.6V14a8,8,0,0,1,8-8m0-6A14,14,0,0,0,50,14v6.29a43.39,43.39,0,0,0-6.92,3l-4.54-4.53a14,14,0,0,0-19.79,0h0a14,14,0,0,0,0,19.79L24,43.76A44.25,44.25,0,0,0,21.67,50H14a14,14,0,0,0,0,28h9a44.81,44.81,0,0,0,2.27,4.92l-6.53,6.54a14,14,0,0,0,19.79,19.79L45.76,102A41.93,41.93,0,0,0,50,103.71V114a14,14,0,0,0,28,0V103.71A41.93,41.93,0,0,0,82.24,102l7.22,7.21a14,14,0,0,0,19.79-19.79l-6.53-6.54A44.81,44.81,0,0,0,105,78h9a14,14,0,0,0,0-28h-7.67A44.25,44.25,0,0,0,104,43.76l5.21-5.22a14,14,0,0,0,0-19.79h0a14,14,0,0,0-19.79,0l-4.54,4.53a43.39,43.39,0,0,0-6.92-3V14A14,14,0,0,0,64,0Z"/><path class="cls-1" d="M64,47A15,15,0,1,1,49,62,15,15,0,0,1,64,47m0-6A21,21,0,1,0,85,62,21,21,0,0,0,64,41Z"/></g></g></svg>