<?xml version="1.0" encoding="UTF-8" standalone="no"?>
<!-- Created with Inkscape (http://www.inkscape.org/) -->

<svg
   width="256"
   height="256"
   viewBox="0 0 67.733332 67.733332"
   version="1.1"
   id="svg1544"
   sodipodi:docname="settings-filled-black.svg"
   inkscape:version="1.2 (dc2aedaf03, 2022-05-15)"
   xmlns:inkscape="http://www.inkscape.org/namespaces/inkscape"
   xmlns:sodipodi="http://sodipodi.sourceforge.net/DTD/sodipodi-0.dtd"
   xmlns="http://www.w3.org/2000/svg"
   xmlns:svg="http://www.w3.org/2000/svg">
  <sodipodi:namedview
     id="namedview14"
     pagecolor="#ffffff"
     bordercolor="#000000"
     borderopacity="0.25"
     inkscape:showpageshadow="2"
     inkscape:pageopacity="0.0"
     inkscape:pagecheckerboard="0"
     inkscape:deskcolor="#d1d1d1"
     showgrid="false"
     inkscape:zoom="2.1598339"
     inkscape:cx="81.256249"
     inkscape:cy="139.59407"
     inkscape:window-width="1920"
     inkscape:window-height="1001"
     inkscape:window-x="-9"
     inkscape:window-y="-9"
     inkscape:window-maximized="1"
     inkscape:current-layer="svg1544" />
  <defs
     id="defs1541">
    <clipPath
       clipPathUnits="userSpaceOnUse"
       id="clipPath1098-4">
      <path
         d="M 0,128 H 128 V 0 H 0 Z"
         id="path1096-0" />
    </clipPath>
    <clipPath
       clipPathUnits="userSpaceOnUse"
       id="clipPath1018">
      <path
         d="M 0,128 H 128 V 0 H 0 Z"
         id="path1016" />
    </clipPath>
  </defs>
  <g
     id="layer3">
    <g
       id="g1012"
       style="display:inline"
       transform="matrix(0.52916667,0,0,-0.52916667,-4.0319077e-8,67.733333)">
      <g
         id="g1014"
         clip-path="url(#clipPath1018)">
        <g
           id="g1020"
           transform="translate(64,128)">
          <path
             id="path1022"
             style="fill:#101010;fill-opacity:1;fill-rule:nonzero;stroke:none"
             d="M -3.2695608e-7,-1.4362204e-6 C -7.6999926,-1.4362204e-6 -14,-6.300009 -14,-14.000001 v -6.288086 c -2.403998,-0.806999 -4.719971,-1.804119 -6.917969,-2.995117 l -4.538086,4.538085 c -2.721997,2.721998 -6.311417,4.083008 -9.899414,4.083008 -3.588996,0 -7.176417,-1.36101 -9.899414,-4.083008 -5.444994,-5.444994 -5.444994,-14.354833 0,-19.798828 l 5.21582,-5.21582 c -0.914999,-2.003998 -1.682016,-4.088236 -2.291015,-6.240234 H -50 c -7.699992,0 -14,-6.300008 -14,-14 0,-7.699992 6.300008,-14 14,-14 h 9.013672 c 0.659999,-1.690998 1.412532,-3.33697 2.269531,-4.917969 l -6.538086,-6.538086 c -5.444994,-5.443994 -5.444994,-14.354834 0,-19.798824 2.722997,-2.723 6.310418,-4.08301 9.899414,-4.08301 3.587997,0 7.177417,1.36001 9.899414,4.08301 l 7.21582,7.21582 c 1.376999,-0.628 2.791236,-1.18686 4.240235,-1.67285 V -114 c 0,-7.69999 6.3000074,-14 13.99999967304392,-14 C 7.699992,-128 14,-121.69999 14,-114 v 10.28809 c 1.447998,0.48599 2.863235,1.04485 4.240234,1.67285 l 7.21582,-7.21582 c 2.721997,-2.723 6.311418,-4.08301 9.899414,-4.08301 3.588997,0 7.176417,1.36001 9.899414,4.08301 5.443995,5.44399 5.443995,14.35483 0,19.798824 l -6.537109,6.538086 c 0.855999,1.580999 1.608555,3.226971 2.268555,4.917969 h 9.013671 c 7.699993,0 14,6.300008 14,14 0,7.699992 -6.300007,14 -14,14 h -7.669921 c -0.609,2.151998 -1.377017,4.236236 -2.291016,6.240234 l 5.21582,5.21582 c 5.443995,5.443995 5.443995,14.353834 0,19.798828 -2.722997,2.721998 -6.310417,4.083008 -9.899414,4.083008 -3.587996,0 -7.177417,-1.36101 -9.899414,-4.083008 l -4.538086,-4.538085 C 18.71997,-22.092206 16.403997,-21.095086 14,-20.288087 v 6.288086 C 14,-6.300009 7.699992,-1.4362204e-6 -3.2695608e-7,-1.4362204e-6 Z m 0,-46.9999995637796 C 8.2709914,-47.000001 15,-53.729009 15,-62.000001 c 0,-8.270992 -6.7290086,-15 -15.00000032695608,-15 C -8.2709921,-77.000001 -15,-70.270993 -15,-62.000001 c 0,8.270992 6.7290079,15 14.99999967304392,15 z" />
        </g>
        <g
           id="g1024"
           transform="translate(64,87)" />
      </g>
    </g>
  </g>
</svg>
