<?xml version="1.0" encoding="UTF-8" standalone="no"?>
<!-- Created with Inkscape (http://www.inkscape.org/) -->

<svg
   width="24"
   height="24"
   viewBox="0 0 6.3499999 6.35"
   version="1.1"
   id="svg5"
   inkscape:version="1.3.2 (091e20e, 2023-11-25, custom)"
   sodipodi:docname="tick_f.svg"
   xmlns:inkscape="http://www.inkscape.org/namespaces/inkscape"
   xmlns:sodipodi="http://sodipodi.sourceforge.net/DTD/sodipodi-0.dtd"
   xmlns="http://www.w3.org/2000/svg"
   xmlns:svg="http://www.w3.org/2000/svg">
  <sodipodi:namedview
     id="namedview7"
     pagecolor="#ffffff"
     bordercolor="#000000"
     borderopacity="0.25"
     inkscape:showpageshadow="2"
     inkscape:pageopacity="0.0"
     inkscape:pagecheckerboard="false"
     inkscape:deskcolor="#d1d1d1"
     inkscape:document-units="px"
     showgrid="true"
     inkscape:zoom="23.204938"
     inkscape:cx="9.4807407"
     inkscape:cy="13.079113"
     inkscape:window-width="1920"
     inkscape:window-height="1001"
     inkscape:window-x="-9"
     inkscape:window-y="-9"
     inkscape:window-maximized="1"
     inkscape:current-layer="layer1">
    <inkscape:grid
       type="xygrid"
       id="grid132"
       empspacing="4"
       dotted="false"
       originx="0"
       originy="0"
       spacingy="0.26458333"
       spacingx="0.26458333"
       units="px"
       visible="true" />
  </sodipodi:namedview>
  <defs
     id="defs2" />
  <g
     inkscape:label="Vrstva 1"
     inkscape:groupmode="layer"
     id="layer1">
    <path
       id="path2"
       style="fill:#000000;stroke-width:1.05833332;stroke-linecap:round;stroke-linejoin:round;stroke-dasharray:none;fill-opacity:1"
       d="M 3.175 0.52916666 A 2.6458333 2.645833 0 0 0 0.52916666 3.175 A 2.6458333 2.645833 0 0 0 3.175 5.8208333 A 2.6458333 2.645833 0 0 0 5.8208333 3.175 A 2.6458333 2.645833 0 0 0 3.175 0.52916666 z M 4.249353 1.6371094 A 0.46302083 0.46302083 0 0 1 4.4782796 1.7068725 A 0.46302083 0.46302083 0 0 1 4.6250407 2.3455932 L 3.1269409 4.7438964 A 0.46306713 0.46306713 0 0 1 2.4081217 4.826062 L 1.5079183 3.9258585 A 0.46302083 0.46302083 0 0 1 1.5079183 3.2716349 A 0.46302083 0.46302083 0 0 1 2.1621419 3.2716349 L 2.6504842 3.7579101 L 3.8400757 1.8557007 A 0.46302083 0.46302083 0 0 1 4.1289469 1.6484782 A 0.46302083 0.46302083 0 0 1 4.249353 1.6371094 z " />
  </g>
</svg>
