<?xml version="1.0" encoding="UTF-8" standalone="no"?>
<!-- Created with Inkscape (http://www.inkscape.org/) -->

<svg
   width="24"
   height="24"
   viewBox="0 0 6.3499999 6.35"
   version="1.1"
   id="svg5"
   inkscape:version="1.3.2 (091e20e, 2023-11-25, custom)"
   sodipodi:docname="trash_2_f.svg"
   xmlns:inkscape="http://www.inkscape.org/namespaces/inkscape"
   xmlns:sodipodi="http://sodipodi.sourceforge.net/DTD/sodipodi-0.dtd"
   xmlns="http://www.w3.org/2000/svg"
   xmlns:svg="http://www.w3.org/2000/svg">
  <sodipodi:namedview
     id="namedview7"
     pagecolor="#ffffff"
     bordercolor="#000000"
     borderopacity="0.25"
     inkscape:showpageshadow="2"
     inkscape:pageopacity="0.0"
     inkscape:pagecheckerboard="false"
     inkscape:deskcolor="#d1d1d1"
     inkscape:document-units="px"
     showgrid="true"
     inkscape:zoom="16.408369"
     inkscape:cx="15.571322"
     inkscape:cy="14.474321"
     inkscape:window-width="1920"
     inkscape:window-height="1001"
     inkscape:window-x="-9"
     inkscape:window-y="-9"
     inkscape:window-maximized="1"
     inkscape:current-layer="layer1">
    <inkscape:grid
       type="xygrid"
       id="grid132"
       empspacing="4"
       dotted="false"
       originx="0"
       originy="0"
       spacingy="0.13229167"
       spacingx="0.13229167"
       units="px"
       visible="true" />
  </sodipodi:namedview>
  <defs
     id="defs2">
    <inkscape:path-effect
       effect="fillet_chamfer"
       id="path-effect1"
       is_visible="true"
       lpeversion="1"
       nodesatellites_param="F,0,0,1,0,0,0,1 @ F,0,0,1,0,0.52916659,0,1 @ F,0,1,1,0,0.52916659,0,1 @ F,0,0,1,0,0,0,1"
       radius="0"
       unit="px"
       method="auto"
       mode="F"
       chamfer_steps="1"
       flexible="false"
       use_knot_distance="true"
       apply_no_radius="true"
       apply_with_radius="true"
       only_selected="false"
       hide_knots="false" />
    <inkscape:path-effect
       effect="fillet_chamfer"
       id="path-effect3"
       is_visible="true"
       lpeversion="1"
       nodesatellites_param="F,0,0,1,0,0,0,1 @ F,0,1,1,0,0.52916664,0,1 @ F,0,0,1,0,0.52916664,0,1 @ F,0,0,1,0,0,0,1"
       radius="0"
       unit="px"
       method="auto"
       mode="F"
       chamfer_steps="1"
       flexible="false"
       use_knot_distance="true"
       apply_no_radius="true"
       apply_with_radius="true"
       only_selected="false"
       hide_knots="false" />
    <inkscape:path-effect
       effect="fillet_chamfer"
       id="path-effect2"
       is_visible="true"
       lpeversion="1"
       nodesatellites_param="F,0,0,1,0,0.5289061,0,1 @ F,0,0,1,0,0,0,1 @ F,0,0,1,0,0,0,1 @ F,0,1,1,0,0.5289061,0,1"
       radius="0"
       unit="px"
       method="auto"
       mode="F"
       chamfer_steps="1"
       flexible="false"
       use_knot_distance="true"
       apply_no_radius="true"
       apply_with_radius="true"
       only_selected="false"
       hide_knots="false" />
  </defs>
  <g
     inkscape:label="Vrstva 1"
     inkscape:groupmode="layer"
     id="layer1">
    <path
       id="rect1"
       style="stroke:#000000;stroke-width:0.264583;stroke-linecap:round;stroke-linejoin:round;fill:#000000;fill-opacity:1"
       d="M 1.0585938,1.5874999 V 1.8515625 H 5.2910156 V 1.5874999 A 0.5289061,0.5289061 45 0 0 4.7621095,1.0585938 H 1.5874999 A 0.5289061,0.5289061 135 0 0 1.0585938,1.5874999 Z"
       inkscape:original-d="M 1.0585938,1.0585938 V 1.8515625 H 5.2910156 V 1.0585938 Z"
       inkscape:path-effect="#path-effect2" />
    <path
       id="rect2"
       style="stroke:#000000;stroke-width:0.26458333;stroke-linecap:round;stroke-linejoin:round;stroke-dasharray:none;fill:#000000;fill-opacity:1"
       d="M 1.3229167 2.38125 L 1.7714681 5.2978678 A 0.61680255 0.61680255 0 0 0 2.38125 5.8208333 L 3.96875 5.8208333 A 0.61680253 0.61680253 0 0 0 4.5785319 5.2978678 L 5.0270833 2.38125 L 1.3229167 2.38125 z M 2.3807332 2.9098999 L 2.7770914 2.9098999 C 2.9217849 2.9093435 3.0437814 3.0313399 3.0432251 3.1760335 L 3.0432251 5.0276001 C 3.0437814 5.1722936 2.9217867 5.2917032 2.7770914 5.2911499 L 2.6463501 5.2932169 C 2.5146913 5.2928792 2.4018553 5.1932969 2.3848673 5.06274 L 2.1192505 3.2127238 C 2.1192457 3.2120738 2.1192457 3.2118235 2.1192505 3.2111735 C 2.0976521 3.0546583 2.2227352 2.9101426 2.3807332 2.9098999 z M 3.5723917 2.9098999 L 3.96875 2.9098999 C 4.126748 2.9101426 4.2518312 3.0546552 4.2302327 3.2111735 C 4.2302375 3.2118235 4.2302375 3.2120738 4.2302327 3.2127238 L 3.9666829 5.06274 C 3.9496964 5.1932978 3.8368585 5.2928823 3.7052002 5.2932169 L 3.5723917 5.2911499 C 3.4276978 5.2917063 3.3062185 5.1722945 3.3067749 5.0276001 L 3.3067749 3.1760335 C 3.3062185 3.0313395 3.4276972 2.9093435 3.5723917 2.9098999 z " />
    <path
       style="fill:none;stroke:#000000;stroke-width:0.264583;stroke-linecap:round;stroke-linejoin:round;stroke-opacity:1"
       d="m 1.8520832,1.0585938 0,-2.605e-4 A 0.52916664,0.52916664 135 0 1 2.3812498,0.52916663 H 3.9687497 A 0.52916684,0.52916684 44.999989 0 1 4.4979165,1.0583333 l 0,0"
       id="path2"
       inkscape:original-d="M 1.8520832,1.0585938 V 0.52916663 h 2.6458331 l 2e-7,0.52916667"
       inkscape:path-effect="#path-effect3"
       sodipodi:nodetypes="cccc" />
  </g>
</svg>
