<svg xmlns="http://www.w3.org/2000/svg" viewBox="0 0 128 128"><defs><style>.cls-1{fill:#fff;}.cls-2,.cls-3{fill:none;stroke:#fff;stroke-miterlimit:10;stroke-width:6px;}.cls-2{stroke-linecap:round;}</style></defs><title>user_1</title><g id="Vrstva_2" data-name="Vrstva 2"><g id="user"><path class="cls-1" d="M64,6A58,58,0,1,1,6,64,58.07,58.07,0,0,1,64,6m0-6a64,64,0,1,0,64,64A64,64,0,0,0,64,0Z"/><path class="cls-2" d="M100.81,92.88A47.52,47.52,0,0,1,63.43,111,46.26,46.26,0,0,1,26.05,92.88"/><path class="cls-3" d="M26.05,92.88S37.38,69.1,63.43,69.1c24.92,0,37.38,23.78,37.38,23.78"/><circle class="cls-2" cx="64.57" cy="46.44" r="22.65"/></g></g></svg>