<svg xmlns="http://www.w3.org/2000/svg" viewBox="0 0 113 113"><defs><style>.cls-1{fill:#fff;}.cls-2,.cls-3{fill:none;stroke:#fff;stroke-miterlimit:10;stroke-width:6px;}.cls-2{stroke-linecap:round;}</style></defs><title>user</title><g id="Vrstva_2" data-name="Vrstva 2"><g id="Vrstva_1-2" data-name="Vrstva 1"><path class="cls-1" d="M56.5,6A50.5,50.5,0,1,1,6,56.5,50.55,50.55,0,0,1,56.5,6m0-6A56.5,56.5,0,1,0,113,56.5,56.51,56.51,0,0,0,56.5,0Z"/><path class="cls-2" d="M89,82A41.92,41.92,0,0,1,56,98,40.86,40.86,0,0,1,23,82"/><path class="cls-3" d="M23,82S33,61,56,61c22,0,33,21,33,21"/><circle class="cls-2" cx="57" cy="41" r="20"/></g></g></svg>