<?xml version="1.0" encoding="UTF-8" standalone="no"?>
<svg
   viewBox="0 0 128 128"
   version="1.1"
   id="svg18"
   sodipodi:docname="user-black.svg"
   inkscape:version="1.2 (dc2aedaf03, 2022-05-15)"
   xmlns:inkscape="http://www.inkscape.org/namespaces/inkscape"
   xmlns:sodipodi="http://sodipodi.sourceforge.net/DTD/sodipodi-0.dtd"
   xmlns="http://www.w3.org/2000/svg"
   xmlns:svg="http://www.w3.org/2000/svg">
  <sodipodi:namedview
     id="namedview20"
     pagecolor="#ffffff"
     bordercolor="#000000"
     borderopacity="0.25"
     inkscape:showpageshadow="2"
     inkscape:pageopacity="0.0"
     inkscape:pagecheckerboard="0"
     inkscape:deskcolor="#d1d1d1"
     showgrid="false"
     inkscape:zoom="12.71875"
     inkscape:cx="61.641278"
     inkscape:cy="82.987715"
     inkscape:window-width="1920"
     inkscape:window-height="1001"
     inkscape:window-x="-9"
     inkscape:window-y="-9"
     inkscape:window-maximized="1"
     inkscape:current-layer="svg18" />
  <defs
     id="defs4">
    <style
       id="style2">.cls-1{fill:#000;}.cls-2,.cls-3{fill:#000;stroke:#000;stroke-miterlimit:10;stroke-width:4px;}.cls-2{stroke-linecap:round;}</style>
  </defs>
  <title
     id="title6">user_1</title>
  <g
     id="Vrstva_2"
     data-name="Vrstva 2"
     style="fill-opacity:1;fill:#4d0036;stroke:none;stroke-opacity:1">
    <g
       id="user"
       style="fill-opacity:1;fill:#4d0036;stroke:none;stroke-opacity:1">
      <path
         class="cls-1"
         d="M64,6A58,58,0,1,1,6,64,58.07,58.07,0,0,1,64,6m0-6a64,64,0,1,0,64,64A64,64,0,0,0,64,0Z"
         id="path8"
         style="fill-opacity:1;fill:#4d0036;stroke:none;stroke-opacity:1" />
      <path
         class="cls-2"
         d="M100.81,92.88A47.52,47.52,0,0,1,63.43,111,46.26,46.26,0,0,1,26.05,92.88"
         id="path10"
         style="fill-opacity:1;fill:#4d0036;stroke:none;stroke-opacity:1" />
      <path
         class="cls-3"
         d="M26.05,92.88S37.38,69.1,63.43,69.1c24.92,0,37.38,23.78,37.38,23.78"
         id="path12"
         style="fill-opacity:1;fill:#4d0036;stroke:none;stroke-opacity:1" />
      <circle
         class="cls-2"
         cx="64.57"
         cy="46.44"
         r="22.65"
         id="circle14"
         style="fill-opacity:1;fill:#4d0036;stroke:none;stroke-opacity:1" />
    </g>
  </g>
</svg>
