<?xml version="1.0" encoding="UTF-8" standalone="no"?>
<!-- Created with Inkscape (http://www.inkscape.org/) -->

<svg
   width="24"
   height="24"
   viewBox="0 0 6.3499999 6.35"
   version="1.1"
   id="svg5"
   inkscape:version="1.3.2 (091e20e, 2023-11-25, custom)"
   sodipodi:docname="user_f_2.svg"
   xmlns:inkscape="http://www.inkscape.org/namespaces/inkscape"
   xmlns:sodipodi="http://sodipodi.sourceforge.net/DTD/sodipodi-0.dtd"
   xmlns="http://www.w3.org/2000/svg"
   xmlns:svg="http://www.w3.org/2000/svg">
  <sodipodi:namedview
     id="namedview7"
     pagecolor="#ffffff"
     bordercolor="#000000"
     borderopacity="0.25"
     inkscape:showpageshadow="2"
     inkscape:pageopacity="0.0"
     inkscape:pagecheckerboard="false"
     inkscape:deskcolor="#d1d1d1"
     inkscape:document-units="px"
     showgrid="true"
     inkscape:zoom="32.816738"
     inkscape:cx="12.70693"
     inkscape:cy="12.051777"
     inkscape:window-width="1920"
     inkscape:window-height="1001"
     inkscape:window-x="-9"
     inkscape:window-y="-9"
     inkscape:window-maximized="1"
     inkscape:current-layer="layer1">
    <inkscape:grid
       type="xygrid"
       id="grid132"
       empspacing="4"
       dotted="false"
       originx="0"
       originy="0"
       spacingy="0.26458333"
       spacingx="0.26458333"
       units="px"
       visible="true" />
  </sodipodi:namedview>
  <defs
     id="defs2" />
  <g
     inkscape:label="Vrstva 1"
     inkscape:groupmode="layer"
     id="layer1">
    <path
       id="path1"
       style="fill:#000000;stroke-width:0.264583;stroke-linecap:round;stroke-linejoin:round;stroke:none;stroke-opacity:1;fill-opacity:1"
       d="M 3.175 0.52916666 A 2.6458333 2.6458333 0 0 0 0.52916666 3.175 A 2.6458333 2.6458333 0 0 0 3.175 5.8208333 A 2.6458333 2.6458333 0 0 0 5.8208333 3.175 A 2.6458333 2.6458333 0 0 0 3.175 0.52916666 z M 3.1760335 0.9255249 C 3.8320291 0.9255249 4.3651082 1.4611878 4.3651082 2.1171834 C 4.3651082 2.5459464 4.1372004 2.9222636 3.7961507 3.1315918 C 4.346096 3.2895988 4.8238071 3.6532689 5.1190673 4.1620198 C 5.1428973 4.2030843 5.1428973 4.2537643 5.1190673 4.2948283 C 4.7191654 4.9911046 3.9789799 5.4218283 3.1760335 5.4239583 C 3.1753835 5.4239631 3.1746164 5.4239631 3.1739664 5.4239583 C 2.3727125 5.4219537 1.6331086 4.9928723 1.2324829 4.2989624 C 1.2094009 4.258396 1.2094009 4.208787 1.2324829 4.168221 C 1.5270932 3.6579367 2.0054863 3.2919605 2.5564331 3.1326253 C 2.2139281 2.9234912 1.984375 2.5466091 1.984375 2.1171834 C 1.984375 1.4611878 2.5200378 0.9255249 3.1760335 0.9255249 z " />
    <circle
       style="fill:none;stroke:#000000;stroke-width:0.264583;stroke-linecap:round;stroke-linejoin:round"
       id="path2"
       cx="3.175"
       cy="3.1749997"
       r="2.6458333" />
  </g>
</svg>
