<svg xmlns="http://www.w3.org/2000/svg" viewBox="0 0 62.28 62.67"><defs><style>.cls-1{fill:none;stroke-width:12px;}.cls-1,.cls-2{stroke:gray;stroke-miterlimit:10;}.cls-2{fill:gray;stroke-width:0.25px;}</style></defs><title>management</title><g id="Vrstva_2" data-name="Vrstva 2"><g id="management"><circle class="cls-1" cx="30.98" cy="31.35" r="17.42"/><path class="cls-2" d="M55.6,37.92H53a6.59,6.59,0,0,1-6.57-6.56h0A6.58,6.58,0,0,1,53,24.8H55.6a6.58,6.58,0,0,1,6.56,6.56h0A6.58,6.58,0,0,1,55.6,37.92Z"/><path class="cls-2" d="M9.32,38.92H6.68A6.57,6.57,0,0,1,.13,32.36h0A6.57,6.57,0,0,1,6.68,25.8H9.33a6.57,6.57,0,0,1,6.55,6.56h0A6.59,6.59,0,0,1,9.32,38.92Z"/><path class="cls-2" d="M37.55,6.68V9.33A6.58,6.58,0,0,1,31,15.89h0a6.57,6.57,0,0,1-6.56-6.56V6.68A6.57,6.57,0,0,1,31,.13h0A6.57,6.57,0,0,1,37.55,6.68Z"/><path class="cls-2" d="M24.43,56V53.35A6.58,6.58,0,0,1,31,46.79h0a6.58,6.58,0,0,1,6.56,6.56V56A6.58,6.58,0,0,1,31,62.55h0A6.58,6.58,0,0,1,24.43,56Z"/><path class="cls-2" d="M44,53.69l-1.86-1.87a6.58,6.58,0,0,1,0-9.28h0a6.57,6.57,0,0,1,9.27,0l1.87,1.87a6.58,6.58,0,0,1,0,9.28h0A6.58,6.58,0,0,1,44,53.69Z"/><path class="cls-2" d="M10.22,19.5,8.36,17.63a6.57,6.57,0,0,1,0-9.28h0a6.57,6.57,0,0,1,9.27,0l1.88,1.87a6.6,6.6,0,0,1,0,9.28h0A6.58,6.58,0,0,1,10.22,19.5Z"/><path class="cls-2" d="M42.17,10.24,44,8.37a6.58,6.58,0,0,1,9.28,0h0a6.58,6.58,0,0,1,0,9.28l-1.87,1.87a6.58,6.58,0,0,1-9.28,0h0A6.58,6.58,0,0,1,42.17,10.24Z"/><path class="cls-2" d="M8.67,44.76l1.87-1.86a6.58,6.58,0,0,1,9.28,0h0a6.59,6.59,0,0,1,0,9.27L17.94,54a6.58,6.58,0,0,1-9.28,0h0A6.59,6.59,0,0,1,8.67,44.76Z"/></g></g></svg>