<svg xmlns="http://www.w3.org/2000/svg" viewBox="0 0 128 128"><defs><style>.cls-1{fill:#fff;}</style></defs><title>home</title><g id="Vrstva_2" data-name="Vrstva 2"><g id="home"><path class="cls-1" d="M64,8.1,112.44,52H104v67.54a2.46,2.46,0,0,1-2.46,2.46H89V85.71A12.72,12.72,0,0,0,76.29,73H51.71A12.72,12.72,0,0,0,39,85.71V122H26.46A2.46,2.46,0,0,1,24,119.54V52H15.56L64,8.1M64,0,0,58H18v61.54A8.46,8.46,0,0,0,26.46,128H45V85.71A6.72,6.72,0,0,1,51.71,79H76.29A6.72,6.72,0,0,1,83,85.71V128h18.54a8.46,8.46,0,0,0,8.46-8.46V58h18L64,0Z"/></g></g></svg>