<?xml version="1.0" encoding="UTF-8" standalone="no"?>
<svg
   viewBox="0 0 128 139.55"
   version="1.1"
   id="svg1217"
   sodipodi:docname="hide-info.svg"
   inkscape:version="1.2 (dc2aedaf03, 2022-05-15)"
   xmlns:inkscape="http://www.inkscape.org/namespaces/inkscape"
   xmlns:sodipodi="http://sodipodi.sourceforge.net/DTD/sodipodi-0.dtd"
   xmlns="http://www.w3.org/2000/svg"
   xmlns:svg="http://www.w3.org/2000/svg"
   xmlns:rdf="http://www.w3.org/1999/02/22-rdf-syntax-ns#"
   xmlns:cc="http://creativecommons.org/ns#"
   xmlns:dc="http://purl.org/dc/elements/1.1/">
  <sodipodi:namedview
     id="namedview1219"
     pagecolor="#ffffff"
     bordercolor="#000000"
     borderopacity="0.25"
     inkscape:showpageshadow="2"
     inkscape:pageopacity="0.0"
     inkscape:pagecheckerboard="0"
     inkscape:deskcolor="#d1d1d1"
     showgrid="false"
     inkscape:zoom="4.2851353"
     inkscape:cx="44.922736"
     inkscape:cy="68.025857"
     inkscape:window-width="1920"
     inkscape:window-height="1001"
     inkscape:window-x="-9"
     inkscape:window-y="-9"
     inkscape:window-maximized="1"
     inkscape:current-layer="svg1217" />
  <defs
     id="defs1207">
    <style
       id="style1205">.cls-1{fill:#888;}.cls-2{font-size:132px;fill:#fff;font-family:Ubuntu-Medium, Ubuntu;font-weight:500;}</style>
  </defs>
  <title
     id="title1209">hide-info</title>
  <g
     id="Vrstva_2"
     data-name="Vrstva 2">
    <g
       id="Vrstva_10"
       data-name="Vrstva 10">
      <path
         id="circle6031"
         class="cls-1"
         d="M 29.238281 117.58203 A 64 64 0 0 0 64 128 A 64 64 0 0 0 128 64 A 64 64 0 0 0 117.66406 29.15625 L 29.238281 117.58203 z " />
      <path
         id="path6038"
         class="cls-1"
         d="M 98.421875 10.060547 A 64 64 0 0 0 64 0 A 64 64 0 0 0 0 64 A 64 64 0 0 0 10.138672 98.34375 L 98.421875 10.060547 z " />
      <text
         class="cls-2"
         transform="translate(45.91 112.49)"
         id="text1213">i</text>
    </g>
  </g>
  <rect
     x="-84.328674"
     y="81.291061"
     width="167.70499"
     height="18.044323"
     style="fill:#aa0000;stroke:#000000;stroke-width:0px"
     rx="4.7259274"
     ry="4.7259688"
     transform="matrix(0.70749033,-0.70672302,0.70988043,0.70432221,0,0)"
     id="rect34" />
  <metadata
     id="metadata6041">
    <rdf:RDF>
      <cc:Work
         rdf:about="">
        <dc:title>hide-info</dc:title>
      </cc:Work>
    </rdf:RDF>
  </metadata>
</svg>
